<?xml version="1.0" encoding="utf-8"?>
<!-- Generator: Adobe Illustrator 16.0.0, SVG Export Plug-In . SVG Version: 6.00 Build 0)  -->
<!DOCTYPE svg PUBLIC "-//W3C//DTD SVG 1.1//EN" "http://www.w3.org/Graphics/SVG/1.1/DTD/svg11.dtd">
<svg version="1.1" id="Layer_1" xmlns="http://www.w3.org/2000/svg" xmlns:xlink="http://www.w3.org/1999/xlink" x="0px" y="0px"
	 width="485px" height="195px" viewBox="0 0 485 195" enable-background="new 0 0 485 195" xml:space="preserve">
<g>
	<path fill="none" stroke="#000000" stroke-miterlimit="10" d="M74.4,22.5c2.933,3.134,4.4,7.534,4.4,13.2v33.1
		c0,0.334-0.117,0.617-0.35,0.85C78.216,69.884,77.933,70,77.6,70H65.9c-0.334,0-0.617-0.116-0.85-0.35
		c-0.234-0.233-0.35-0.516-0.35-0.85v-30c0-2.732-0.7-4.9-2.1-6.5c-1.4-1.6-3.267-2.4-5.6-2.4c-2.334,0-4.234,0.8-5.7,2.4
		c-1.467,1.6-2.2,3.734-2.2,6.4v30.1c0,0.334-0.117,0.617-0.35,0.85C48.516,69.884,48.233,70,47.9,70H36.3
		c-0.334,0-0.617-0.116-0.85-0.35c-0.234-0.233-0.35-0.516-0.35-0.85v-30c0-2.666-0.734-4.815-2.2-6.45
		c-1.467-1.633-3.367-2.45-5.7-2.45c-2.135,0-3.917,0.634-5.35,1.9c-1.435,1.268-2.285,3.035-2.55,5.3v31.7
		c0,0.334-0.117,0.617-0.35,0.85C18.716,69.884,18.433,70,18.1,70H6.4c-0.334,0-0.617-0.116-0.85-0.35
		c-0.234-0.233-0.35-0.516-0.35-0.85v-49c0-0.333,0.115-0.615,0.35-0.85c0.233-0.233,0.516-0.35,0.85-0.35h11.7
		c0.333,0,0.616,0.117,0.85,0.35c0.232,0.234,0.35,0.517,0.35,0.85v3.9c0,0.2,0.066,0.334,0.2,0.4c0.133,0.067,0.266,0,0.4-0.2
		c2.733-4.065,6.966-6.1,12.7-6.1c3.333,0,6.25,0.7,8.75,2.1s4.416,3.4,5.75,6c0.2,0.4,0.433,0.4,0.7,0
		c1.466-2.733,3.45-4.766,5.95-6.1c2.5-1.333,5.315-2,8.45-2C67.4,17.799,71.466,19.367,74.4,22.5z"/>
	<path fill="none" stroke="#000000" stroke-miterlimit="10" d="M134.3,47.5c-0.067,0.8-0.5,1.2-1.3,1.2h-30.9
		c-0.4,0-0.534,0.167-0.4,0.5c0.2,1.334,0.565,2.667,1.1,4c1.733,3.734,5.266,5.6,10.6,5.6c4.266-0.065,7.633-1.8,10.1-5.2
		c0.266-0.4,0.566-0.6,0.9-0.6c0.2,0,0.433,0.134,0.7,0.4l7.2,7.1c0.333,0.334,0.5,0.634,0.5,0.9c0,0.134-0.134,0.4-0.4,0.8
		c-2.2,2.734-5.035,4.85-8.5,6.35c-3.467,1.5-7.268,2.25-11.4,2.25c-5.734,0-10.584-1.3-14.55-3.9c-3.967-2.6-6.817-6.233-8.55-10.9
		c-1.4-3.333-2.1-7.7-2.1-13.1c0-3.666,0.5-6.9,1.5-9.7c1.533-4.733,4.215-8.5,8.05-11.3c3.833-2.8,8.383-4.2,13.65-4.2
		c6.666,0,12.016,1.934,16.05,5.8c4.033,3.867,6.483,9.034,7.35,15.5C134.3,41.534,134.433,44.367,134.3,47.5z M102.3,35.799
		c-0.267,0.867-0.5,1.935-0.7,3.2c0,0.334,0.166,0.5,0.5,0.5h17.3c0.4,0,0.533-0.166,0.4-0.5c-0.334-1.933-0.5-2.866-0.5-2.8
		c-0.6-2-1.65-3.55-3.15-4.65c-1.5-1.1-3.35-1.65-5.55-1.65C106.4,29.899,103.633,31.867,102.3,35.799z"/>
	<path fill="none" stroke="#000000" stroke-miterlimit="10" d="M151.1,68.799c-3.334-1.266-5.917-3.033-7.75-5.3
		c-1.834-2.266-2.75-4.833-2.75-7.7v-1c0-0.333,0.116-0.615,0.35-0.85c0.233-0.233,0.516-0.35,0.85-0.35h11.1
		c0.333,0,0.616,0.117,0.85,0.35c0.233,0.234,0.35,0.517,0.35,0.85v0.1c0,1.467,0.815,2.717,2.45,3.75
		c1.633,1.035,3.683,1.55,6.15,1.55c2.266,0,4.1-0.45,5.5-1.35s2.1-2.016,2.1-3.35c0-1.2-0.6-2.1-1.8-2.7
		c-1.2-0.6-3.167-1.232-5.9-1.9c-3.134-0.8-5.6-1.565-7.4-2.3c-4.267-1.466-7.667-3.266-10.2-5.4c-2.534-2.133-3.8-5.2-3.8-9.2
		c0-4.933,1.916-8.85,5.75-11.75c3.833-2.9,8.916-4.35,15.25-4.35c4.266,0,8,0.685,11.2,2.05c3.2,1.367,5.683,3.284,7.45,5.75
		c1.766,2.467,2.65,5.267,2.65,8.4c0,0.334-0.117,0.617-0.35,0.85c-0.234,0.234-0.517,0.35-0.85,0.35h-10.7
		c-0.334,0-0.617-0.115-0.85-0.35c-0.234-0.233-0.35-0.516-0.35-0.85c0-1.466-0.75-2.7-2.25-3.7s-3.484-1.5-5.95-1.5
		c-2.2,0-4,0.4-5.4,1.2c-1.4,0.8-2.1,1.9-2.1,3.3c0,1.334,0.683,2.334,2.05,3c1.366,0.667,3.65,1.367,6.85,2.1
		c0.733,0.2,1.565,0.417,2.5,0.65c0.933,0.234,1.933,0.517,3,0.85c4.733,1.4,8.466,3.2,11.2,5.4c2.732,2.2,4.1,5.4,4.1,9.6
		c0,4.935-1.95,8.784-5.85,11.55c-3.9,2.768-9.15,4.15-15.75,4.15C158.333,70.7,154.433,70.065,151.1,68.799z"/>
	<path fill="none" stroke="#000000" stroke-miterlimit="10" d="M200.601,68.799c-3.334-1.266-5.917-3.033-7.75-5.3
		c-1.834-2.266-2.75-4.833-2.75-7.7v-1c0-0.333,0.116-0.615,0.35-0.85c0.233-0.233,0.516-0.35,0.85-0.35h11.1
		c0.333,0,0.616,0.117,0.85,0.35c0.233,0.234,0.35,0.517,0.35,0.85v0.1c0,1.467,0.815,2.717,2.45,3.75
		c1.633,1.035,3.683,1.55,6.15,1.55c2.266,0,4.1-0.45,5.5-1.35s2.1-2.016,2.1-3.35c0-1.2-0.6-2.1-1.8-2.7
		c-1.2-0.6-3.167-1.232-5.9-1.9c-3.134-0.8-5.6-1.565-7.4-2.3c-4.267-1.466-7.667-3.266-10.2-5.4c-2.534-2.133-3.8-5.2-3.8-9.2
		c0-4.933,1.916-8.85,5.75-11.75c3.833-2.9,8.916-4.35,15.25-4.35c4.266,0,8,0.685,11.2,2.05c3.2,1.367,5.683,3.284,7.45,5.75
		c1.766,2.467,2.65,5.267,2.65,8.4c0,0.334-0.117,0.617-0.35,0.85c-0.234,0.234-0.517,0.35-0.85,0.35h-10.7
		c-0.334,0-0.617-0.115-0.85-0.35c-0.234-0.233-0.35-0.516-0.35-0.85c0-1.466-0.75-2.7-2.25-3.7s-3.484-1.5-5.95-1.5
		c-2.2,0-4,0.4-5.4,1.2c-1.4,0.8-2.1,1.9-2.1,3.3c0,1.334,0.683,2.334,2.05,3c1.366,0.667,3.65,1.367,6.85,2.1
		c0.733,0.2,1.565,0.417,2.5,0.65c0.933,0.234,1.933,0.517,3,0.85c4.733,1.4,8.466,3.2,11.2,5.4c2.732,2.2,4.1,5.4,4.1,9.6
		c0,4.935-1.95,8.784-5.85,11.55c-3.9,2.768-9.15,4.15-15.75,4.15C207.834,70.7,203.934,70.065,200.601,68.799z"/>
	<path fill="none" stroke="#000000" stroke-miterlimit="10" d="M274.101,20.049c3.4,1.5,6.05,3.55,7.95,6.15
		c1.9,2.6,2.85,5.5,2.85,8.7v33.9c0,0.334-0.117,0.617-0.35,0.85c-0.234,0.234-0.517,0.35-0.85,0.35h-11.7
		c-0.334,0-0.617-0.116-0.85-0.35c-0.234-0.233-0.35-0.516-0.35-0.85v-3.3c0-0.2-0.067-0.333-0.2-0.4c-0.134-0.066-0.267,0-0.4,0.2
		c-2.8,3.667-7.3,5.5-13.5,5.5c-5.2,0-9.4-1.266-12.6-3.8c-3.2-2.533-4.8-6.266-4.8-11.2c0-5.133,1.8-9.115,5.4-11.95
		c3.6-2.833,8.733-4.25,15.4-4.25h10.2c0.333,0,0.5-0.166,0.5-0.5v-2.2c0-2.2-0.667-3.916-2-5.15c-1.334-1.233-3.334-1.85-6-1.85
		c-2.067,0-3.784,0.367-5.15,1.1c-1.367,0.734-2.25,1.767-2.65,3.1c-0.2,0.734-0.635,1.067-1.3,1l-12.1-1.6
		c-0.8-0.133-1.167-0.433-1.1-0.9c0.266-2.8,1.383-5.333,3.35-7.6c1.966-2.266,4.566-4.033,7.8-5.3c3.233-1.266,6.85-1.9,10.85-1.9
		C266.833,17.799,270.701,18.549,274.101,20.049z M267.801,58c2-1.533,3-3.5,3-5.9v-3.6c0-0.333-0.167-0.5-0.5-0.5h-7.2
		c-3,0-5.35,0.567-7.05,1.7c-1.7,1.134-2.55,2.734-2.55,4.8c0,1.8,0.633,3.217,1.9,4.25c1.266,1.034,2.965,1.55,5.1,1.55
		C263.366,60.299,265.801,59.534,267.801,58z"/>
	<path fill="none" stroke="#000000" stroke-miterlimit="10" d="M326.551,18.95c0.232-0.233,0.516-0.35,0.85-0.35h11.7
		c0.333,0,0.615,0.117,0.85,0.35c0.233,0.234,0.351,0.517,0.351,0.85v45.6c0,8.733-2.518,14.966-7.55,18.7
		c-5.035,3.733-11.518,5.6-19.45,5.6c-2.335,0-4.935-0.167-7.8-0.5c-0.667-0.067-1-0.5-1-1.3l0.4-10.3c0-0.867,0.466-1.234,1.4-1.1
		c2.399,0.4,4.6,0.6,6.6,0.6c4.266,0,7.55-0.935,9.851-2.8c2.3-1.867,3.449-4.865,3.449-9c0-0.2-0.066-0.315-0.199-0.35
		c-0.135-0.033-0.268,0.017-0.4,0.15c-2.534,2.734-6.234,4.1-11.1,4.1c-4.335,0-8.317-1.05-11.95-3.15
		c-3.635-2.1-6.217-5.482-7.75-10.15c-1-3.065-1.5-7.033-1.5-11.9c0-5.2,0.6-9.433,1.8-12.7c1.4-4.065,3.766-7.333,7.1-9.8
		c3.333-2.466,7.2-3.7,11.6-3.7c5.133,0,9.065,1.535,11.8,4.6c0.133,0.134,0.266,0.185,0.4,0.15c0.133-0.033,0.199-0.15,0.199-0.35
		v-2.4C326.2,19.467,326.316,19.184,326.551,18.95z M326.2,43.899c0-2.065-0.066-3.666-0.199-4.8c-0.135-1.133-0.367-2.2-0.7-3.2
		c-0.601-1.8-1.601-3.25-3-4.35c-1.4-1.1-3.135-1.65-5.2-1.65c-2,0-3.7,0.55-5.1,1.65c-1.4,1.1-2.435,2.55-3.101,4.35
		c-0.935,2-1.4,4.7-1.4,8.1c0,3.734,0.4,6.4,1.2,8c0.601,1.8,1.65,3.25,3.15,4.35S315.134,58,317.2,58c2.133,0,3.9-0.55,5.301-1.65
		c1.399-1.1,2.365-2.516,2.899-4.25C325.934,50.1,326.2,47.367,326.2,43.899z"/>
	<path fill="none" stroke="#000000" stroke-miterlimit="10" d="M396.301,47.5c-0.066,0.8-0.5,1.2-1.3,1.2h-30.899
		c-0.4,0-0.535,0.167-0.4,0.5c0.2,1.334,0.565,2.667,1.1,4c1.733,3.734,5.266,5.6,10.601,5.6c4.266-0.065,7.633-1.8,10.1-5.2
		c0.266-0.4,0.565-0.6,0.9-0.6c0.2,0,0.433,0.134,0.7,0.4l7.199,7.1c0.333,0.334,0.5,0.634,0.5,0.9c0,0.134-0.134,0.4-0.399,0.8
		c-2.2,2.734-5.034,4.85-8.5,6.35c-3.468,1.5-7.268,2.25-11.4,2.25c-5.734,0-10.584-1.3-14.55-3.9c-3.967-2.6-6.817-6.233-8.55-10.9
		c-1.4-3.333-2.101-7.7-2.101-13.1c0-3.666,0.5-6.9,1.5-9.7c1.533-4.733,4.216-8.5,8.051-11.3c3.832-2.8,8.383-4.2,13.649-4.2
		c6.666,0,12.016,1.934,16.05,5.8c4.033,3.867,6.483,9.034,7.351,15.5C396.301,41.534,396.434,44.367,396.301,47.5z M364.301,35.799
		c-0.267,0.867-0.5,1.935-0.699,3.2c0,0.334,0.165,0.5,0.5,0.5h17.3c0.399,0,0.532-0.166,0.399-0.5c-0.334-1.933-0.5-2.866-0.5-2.8
		c-0.6-2-1.649-3.55-3.149-4.65c-1.5-1.1-3.351-1.65-5.55-1.65C368.401,29.899,365.634,31.867,364.301,35.799z"/>
	<path fill="none" stroke="#000000" stroke-miterlimit="10" d="M462.699,8c4.865,2.6,8.6,6.217,11.199,10.85
		c2.601,4.634,3.9,9.95,3.9,15.95c0,1.734-0.1,3.5-0.3,5.3c-0.8,6.534-2.8,11.617-6,15.25c-3.2,3.634-7.5,5.45-12.9,5.45
		c-4.667,0-8.267-1.365-10.8-4.1c-0.2-0.266-0.435-0.266-0.7,0c-1.334,1.334-2.95,2.334-4.85,3c-1.9,0.667-3.851,1-5.851,1
		c-3.534,0-6.449-0.916-8.75-2.75c-2.3-1.833-3.717-4.183-4.25-7.05c-0.199-1.133-0.3-2.3-0.3-3.5c0-1.133,0.133-2.833,0.4-5.1
		c0.399-3,1.065-5.766,2-8.3c1.133-3.266,2.982-5.783,5.55-7.55c2.565-1.766,5.383-2.65,8.45-2.65c3.266,0,5.8,1,7.6,3
		c0.133,0.2,0.266,0.285,0.4,0.25c0.133-0.033,0.2-0.15,0.2-0.35l0.199-1.6c0.066-0.733,0.5-1.1,1.301-1.1h7
		c0.8,0,1.165,0.435,1.1,1.3l-2.5,18.6c-0.067,0.467-0.1,1.134-0.1,2c0,1.867,0.383,3.367,1.149,4.5c0.766,1.134,1.916,1.7,3.45,1.7
		c4.065,0,6.666-3.8,7.8-11.4c0.266-1.666,0.4-3.5,0.4-5.5c0-7.133-2.034-12.566-6.101-16.3c-4.066-3.733-9.534-5.6-16.399-5.6
		c-5.468,0-10.45,1.167-14.95,3.5c-4.5,2.334-8.167,5.717-11,10.15c-2.834,4.434-4.55,9.65-5.15,15.65
		c-0.134,1-0.199,2.434-0.199,4.3c0,7.067,2.032,12.6,6.1,16.6c4.065,4,9.633,6,16.7,6c3.2,0,6.133-0.366,8.8-1.1
		c2.666-0.733,4.833-1.666,6.5-2.8c0.133-0.133,0.365-0.2,0.7-0.2c0.466,0,0.766,0.167,0.899,0.5l4,5.4
		c0.2,0.333,0.301,0.6,0.301,0.8c0,0.333-0.168,0.6-0.5,0.8c-2.468,1.866-5.685,3.35-9.65,4.45c-3.967,1.1-8.018,1.65-12.15,1.65
		c-6.134,0-11.6-1.3-16.399-3.9s-8.567-6.35-11.3-11.25c-2.734-4.9-4.101-10.616-4.101-17.15c0-1.666,0.101-3.333,0.3-5
		c0.801-7.4,3.184-13.95,7.15-19.65c3.966-5.7,8.982-10.115,15.05-13.25c6.065-3.133,12.601-4.7,19.601-4.7
		C452.164,4.1,457.832,5.399,462.699,8z M441.398,51.549c1-0.766,1.801-1.783,2.4-3.05c0.732-1.4,1.266-3.5,1.6-6.3
		c0.133-1.2,0.2-2.5,0.2-3.9c0-1.065-0.034-1.8-0.1-2.2c-0.135-1.266-0.65-2.283-1.55-3.05c-0.9-0.766-2.051-1.15-3.45-1.15
		c-1.335,0-2.55,0.384-3.65,1.15c-1.1,0.768-1.95,1.785-2.55,3.05c-0.667,1.267-1.2,3.467-1.6,6.6c-0.2,1.467-0.301,2.7-0.301,3.7
		c0,0.6,0.066,1.3,0.2,2.1c0.266,1.334,0.851,2.367,1.75,3.1c0.9,0.734,2.083,1.1,3.55,1.1
		C439.231,52.7,440.398,52.317,441.398,51.549z"/>
	<path d="M34.35,129.549c-0.234,0.234-0.517,0.35-0.85,0.35h-9.6c-0.334,0-0.5,0.167-0.5,0.5v21.2c0,2.2,0.45,3.834,1.35,4.9
		c0.9,1.067,2.35,1.6,4.35,1.6h3.3c0.333,0,0.616,0.117,0.85,0.35c0.233,0.234,0.35,0.517,0.35,0.85v9.5c0,0.734-0.4,1.167-1.2,1.3
		c-2.8,0.133-4.8,0.2-6,0.2c-5.534,0-9.667-0.916-12.4-2.75c-2.734-1.833-4.134-5.283-4.2-10.35v-26.8c0-0.333-0.167-0.5-0.5-0.5
		H3.6c-0.334,0-0.617-0.116-0.85-0.35c-0.234-0.232-0.35-0.516-0.35-0.85v-8.9c0-0.333,0.116-0.615,0.35-0.85
		c0.233-0.233,0.516-0.35,0.85-0.35h5.7c0.333,0,0.5-0.166,0.5-0.5v-11.9c0-0.333,0.116-0.616,0.35-0.85
		c0.233-0.233,0.516-0.35,0.85-0.35h11.2c0.333,0,0.615,0.117,0.85,0.35c0.233,0.234,0.35,0.517,0.35,0.85v11.9
		c0,0.334,0.166,0.5,0.5,0.5h9.6c0.333,0,0.616,0.117,0.85,0.35c0.233,0.234,0.35,0.517,0.35,0.85v8.9
		C34.7,129.034,34.583,129.317,34.35,129.549z"/>
	<path d="M45.149,110.549c-1.5-1.5-2.25-3.383-2.25-5.65c0-2.333,0.733-4.233,2.2-5.7c1.465-1.466,3.366-2.2,5.7-2.2
		c2.333,0,4.233,0.734,5.7,2.2c1.466,1.467,2.2,3.367,2.2,5.7c0,2.267-0.75,4.15-2.25,5.65s-3.385,2.25-5.65,2.25
		C48.532,112.799,46.649,112.049,45.149,110.549z M43.949,169.649c-0.234-0.233-0.35-0.516-0.35-0.85v-49.1
		c0-0.333,0.116-0.616,0.35-0.85c0.232-0.233,0.516-0.35,0.85-0.35h11.7c0.333,0,0.616,0.117,0.85,0.35
		c0.233,0.234,0.35,0.517,0.35,0.85v49.1c0,0.334-0.117,0.617-0.35,0.85c-0.234,0.234-0.517,0.35-0.85,0.35h-11.7
		C44.465,170,44.182,169.884,43.949,169.649z"/>
	<path d="M97.848,129.549c-0.234,0.234-0.517,0.35-0.85,0.35h-9.6c-0.334,0-0.5,0.167-0.5,0.5v21.2c0,2.2,0.45,3.834,1.35,4.9
		c0.9,1.067,2.35,1.6,4.35,1.6h3.3c0.333,0,0.616,0.117,0.85,0.35c0.233,0.234,0.35,0.517,0.35,0.85v9.5c0,0.734-0.4,1.167-1.2,1.3
		c-2.8,0.133-4.8,0.2-6,0.2c-5.534,0-9.667-0.916-12.4-2.75c-2.734-1.833-4.134-5.283-4.2-10.35v-26.8c0-0.333-0.167-0.5-0.5-0.5
		h-5.7c-0.334,0-0.617-0.116-0.85-0.35c-0.234-0.232-0.35-0.516-0.35-0.85v-8.9c0-0.333,0.116-0.615,0.35-0.85
		c0.233-0.233,0.516-0.35,0.85-0.35h5.7c0.333,0,0.5-0.166,0.5-0.5v-11.9c0-0.333,0.116-0.616,0.35-0.85
		c0.233-0.233,0.516-0.35,0.85-0.35h11.2c0.333,0,0.615,0.117,0.85,0.35c0.233,0.234,0.35,0.517,0.35,0.85v11.9
		c0,0.334,0.166,0.5,0.5,0.5h9.6c0.333,0,0.616,0.117,0.85,0.35c0.233,0.234,0.35,0.517,0.35,0.85v8.9
		C98.198,129.034,98.081,129.317,97.848,129.549z"/>
	<path d="M107.047,169.649c-0.234-0.233-0.35-0.516-0.35-0.85v-67.6c0-0.333,0.115-0.616,0.35-0.85
		c0.233-0.233,0.516-0.35,0.85-0.35h11.7c0.333,0,0.616,0.117,0.85,0.35c0.232,0.234,0.35,0.517,0.35,0.85v67.6
		c0,0.334-0.117,0.617-0.35,0.85c-0.234,0.234-0.518,0.35-0.85,0.35h-11.7C107.563,170,107.28,169.884,107.047,169.649z"/>
	<path d="M133.246,168.149c-1.5-1.5-2.25-3.383-2.25-5.65c0-2.333,0.733-4.233,2.2-5.7c1.466-1.465,3.366-2.2,5.7-2.2
		c2.333,0,4.233,0.734,5.7,2.2c1.465,1.467,2.2,3.367,2.2,5.7c0,2.267-0.75,4.15-2.25,5.65s-3.384,2.25-5.65,2.25
		C136.629,170.399,134.746,169.649,133.246,168.149z"/>
	<path d="M190.195,120.049c3.4,1.5,6.05,3.55,7.95,6.15c1.9,2.6,2.85,5.5,2.85,8.7v33.9c0,0.334-0.117,0.617-0.35,0.85
		c-0.234,0.234-0.517,0.35-0.85,0.35h-11.7c-0.334,0-0.617-0.116-0.85-0.35c-0.234-0.233-0.35-0.516-0.35-0.85v-3.3
		c0-0.2-0.067-0.333-0.2-0.4c-0.134-0.066-0.267,0-0.4,0.2c-2.8,3.667-7.3,5.5-13.5,5.5c-5.2,0-9.4-1.266-12.6-3.8
		c-3.2-2.533-4.8-6.266-4.8-11.2c0-5.133,1.8-9.115,5.4-11.95c3.6-2.833,8.733-4.25,15.4-4.25h10.2c0.333,0,0.5-0.166,0.5-0.5v-2.2
		c0-2.2-0.667-3.916-2-5.15c-1.334-1.233-3.334-1.85-6-1.85c-2.067,0-3.784,0.367-5.15,1.1c-1.367,0.734-2.25,1.767-2.65,3.1
		c-0.2,0.734-0.635,1.067-1.3,1l-12.1-1.6c-0.8-0.133-1.167-0.433-1.1-0.9c0.266-2.8,1.383-5.333,3.35-7.6
		c1.966-2.266,4.566-4.033,7.8-5.3c3.233-1.266,6.85-1.9,10.85-1.9C182.928,117.799,186.795,118.549,190.195,120.049z M183.895,158
		c2-1.533,3-3.5,3-5.9v-3.6c0-0.333-0.167-0.5-0.5-0.5h-7.2c-3,0-5.35,0.567-7.05,1.7c-1.7,1.134-2.55,2.734-2.55,4.8
		c0,1.8,0.633,3.217,1.9,4.25c1.266,1.034,2.965,1.55,5.1,1.55C179.46,160.299,181.895,159.534,183.895,158z"/>
	<path d="M242.645,118.95c0.232-0.233,0.516-0.35,0.85-0.35h11.7c0.333,0,0.616,0.117,0.85,0.35c0.233,0.234,0.35,0.517,0.35,0.85
		v45.6c0,8.733-2.518,14.966-7.55,18.7c-5.034,3.733-11.517,5.6-19.45,5.6c-2.334,0-4.935-0.167-7.8-0.5c-0.667-0.067-1-0.5-1-1.3
		l0.4-10.3c0-0.867,0.466-1.234,1.4-1.1c2.4,0.4,4.6,0.6,6.6,0.6c4.266,0,7.55-0.935,9.85-2.8c2.3-1.867,3.45-4.865,3.45-9
		c0-0.2-0.067-0.315-0.2-0.35c-0.134-0.033-0.267,0.017-0.4,0.15c-2.534,2.734-6.234,4.1-11.1,4.1c-4.334,0-8.317-1.05-11.95-3.15
		c-3.635-2.1-6.217-5.482-7.75-10.15c-1-3.065-1.5-7.033-1.5-11.9c0-5.2,0.6-9.433,1.8-12.7c1.4-4.065,3.766-7.333,7.1-9.8
		c3.333-2.466,7.2-3.7,11.6-3.7c5.133,0,9.065,1.535,11.8,4.6c0.133,0.134,0.266,0.185,0.4,0.15c0.133-0.033,0.2-0.15,0.2-0.35v-2.4
		C242.295,119.467,242.411,119.184,242.645,118.95z M242.295,143.899c0-2.065-0.067-3.666-0.2-4.8c-0.134-1.133-0.367-2.2-0.7-3.2
		c-0.6-1.8-1.6-3.25-3-4.35c-1.4-1.1-3.135-1.65-5.2-1.65c-2,0-3.7,0.55-5.1,1.65c-1.4,1.1-2.434,2.55-3.1,4.35
		c-0.934,2-1.4,4.7-1.4,8.1c0,3.734,0.4,6.4,1.2,8c0.6,1.8,1.65,3.25,3.15,4.35s3.283,1.65,5.35,1.65c2.133,0,3.9-0.55,5.3-1.65
		s2.366-2.516,2.9-4.25C242.028,150.1,242.295,147.367,242.295,143.899z"/>
	<path d="M312.395,147.5c-0.066,0.8-0.5,1.2-1.3,1.2h-30.9c-0.4,0-0.534,0.167-0.4,0.5c0.2,1.334,0.565,2.667,1.1,4
		c1.733,3.734,5.266,5.6,10.6,5.6c4.266-0.065,7.633-1.8,10.1-5.2c0.266-0.4,0.566-0.6,0.9-0.6c0.2,0,0.433,0.134,0.7,0.4l7.2,7.1
		c0.333,0.334,0.5,0.634,0.5,0.9c0,0.134-0.134,0.4-0.399,0.8c-2.2,2.734-5.035,4.85-8.5,6.35c-3.467,1.5-7.268,2.25-11.4,2.25
		c-5.734,0-10.584-1.3-14.55-3.9c-3.967-2.6-6.817-6.233-8.55-10.9c-1.4-3.333-2.1-7.7-2.1-13.1c0-3.666,0.5-6.9,1.5-9.7
		c1.533-4.733,4.215-8.5,8.05-11.3c3.833-2.8,8.383-4.2,13.65-4.2c6.666,0,12.016,1.934,16.05,5.8
		c4.033,3.867,6.483,9.034,7.35,15.5C312.395,141.534,312.527,144.367,312.395,147.5z M280.395,135.799
		c-0.267,0.867-0.5,1.935-0.7,3.2c0,0.334,0.166,0.5,0.5,0.5h17.3c0.4,0,0.533-0.166,0.4-0.5c-0.334-1.933-0.5-2.866-0.5-2.8
		c-0.6-2-1.65-3.55-3.15-4.65c-1.5-1.1-3.35-1.65-5.55-1.65C284.495,129.899,281.728,131.867,280.395,135.799z"/>
	<path d="M360.794,122.7c3.266,3.267,4.899,7.7,4.899,13.3v32.8c0,0.334-0.117,0.617-0.35,0.85c-0.234,0.234-0.518,0.35-0.851,0.35
		h-11.699c-0.335,0-0.617-0.116-0.851-0.35c-0.234-0.233-0.35-0.516-0.35-0.85v-29.9c0-2.666-0.75-4.833-2.25-6.5
		c-1.5-1.666-3.484-2.5-5.95-2.5c-2.467,0-4.45,0.834-5.95,2.5c-1.5,1.667-2.25,3.834-2.25,6.5v29.9c0,0.334-0.117,0.617-0.35,0.85
		c-0.234,0.234-0.518,0.35-0.851,0.35h-11.699c-0.335,0-0.617-0.116-0.851-0.35c-0.234-0.233-0.35-0.516-0.35-0.85v-49
		c0-0.333,0.115-0.615,0.35-0.85c0.233-0.233,0.516-0.35,0.851-0.35h11.699c0.333,0,0.616,0.117,0.851,0.35
		c0.232,0.234,0.35,0.517,0.35,0.85v3.5c0,0.2,0.065,0.334,0.2,0.4c0.133,0.067,0.232,0.034,0.3-0.1c2.733-3.866,6.8-5.8,12.2-5.8
		C353.227,117.799,357.526,119.434,360.794,122.7z"/>
	<path d="M384.245,166.799c-3.9-2.666-6.685-6.333-8.351-11c-1.134-3.333-1.699-7.266-1.699-11.8c0-4.466,0.565-8.333,1.699-11.6
		c1.601-4.533,4.366-8.1,8.301-10.7c3.933-2.6,8.565-3.9,13.899-3.9c5.333,0,10.016,1.334,14.05,4
		c4.033,2.667,6.716,6.035,8.051,10.1c0.532,1.6,0.8,2.8,0.8,3.6v0.2c0,0.6-0.335,0.967-1,1.1l-11.5,1.7h-0.2c-0.6,0-1-0.333-1.2-1
		l-0.3-1.6c-0.467-1.733-1.5-3.166-3.1-4.3c-1.601-1.133-3.5-1.7-5.7-1.7c-2.135,0-3.935,0.535-5.4,1.6
		c-1.467,1.067-2.5,2.534-3.1,4.4c-0.734,2-1.101,4.734-1.101,8.2c0,3.467,0.333,6.2,1,8.2c0.601,2,1.65,3.567,3.15,4.7
		c1.5,1.134,3.315,1.7,5.45,1.7c2.065,0,3.883-0.55,5.45-1.65c1.565-1.1,2.649-2.615,3.25-4.55c0.065-0.133,0.1-0.333,0.1-0.6
		c0.065-0.065,0.1-0.166,0.1-0.3c0.066-0.8,0.533-1.133,1.4-1l11.5,1.8c0.666,0.134,1,0.5,1,1.1c0,0.534-0.2,1.534-0.6,3
		c-1.4,4.467-4.117,7.967-8.15,10.5c-4.034,2.534-8.685,3.8-13.95,3.8C392.761,170.799,388.145,169.467,384.245,166.799z"/>
	<path d="M427.096,189.549c-0.135-0.234-0.2-0.517-0.2-0.85v-9.2c0-0.334,0.115-0.617,0.35-0.85c0.233-0.234,0.516-0.35,0.851-0.35
		c2.8-0.067,5.016-0.3,6.649-0.7c1.633-0.4,2.933-1.167,3.9-2.3c0.966-1.134,1.716-2.8,2.25-5c0.065-0.134,0.065-0.333,0-0.6
		l-16.4-49.8c-0.067-0.133-0.1-0.3-0.1-0.5c0-0.6,0.365-0.9,1.1-0.9h12.5c0.733,0,1.2,0.334,1.4,1l8.399,32.4
		c0.066,0.2,0.166,0.3,0.301,0.3c0.133,0,0.232-0.1,0.3-0.3l8.399-32.4c0.2-0.666,0.666-1,1.4-1h12.2c0.399,0,0.683,0.117,0.85,0.35
		c0.166,0.234,0.183,0.584,0.05,1.05l-17.3,52c-1.667,4.866-3.367,8.516-5.1,10.95c-1.734,2.433-4.167,4.215-7.3,5.35
		c-3.135,1.133-7.567,1.7-13.301,1.7h-0.699C427.396,189.899,427.229,189.782,427.096,189.549z"/>
</g>
</svg>
