<?xml version="1.0" encoding="utf-8"?>
<!-- Generator: Adobe Illustrator 16.0.0, SVG Export Plug-In . SVG Version: 6.00 Build 0)  -->
<!DOCTYPE svg PUBLIC "-//W3C//DTD SVG 1.1//EN" "http://www.w3.org/Graphics/SVG/1.1/DTD/svg11.dtd">
<svg version="1.1" id="Layer_1" xmlns="http://www.w3.org/2000/svg" xmlns:xlink="http://www.w3.org/1999/xlink" x="0px" y="0px"
	 width="443px" height="162px" viewBox="0 0 443 162" enable-background="new 0 0 443 162" xml:space="preserve">
<g>
	<path fill="none" stroke="#FFFFFF" stroke-miterlimit="10" d="M13.8,60.32c-3.173-1.706-5.64-4.092-7.4-7.16
		c-1.76-3.066-2.64-6.6-2.64-10.6V25.44c0-3.946,0.88-7.44,2.64-10.48c1.76-3.04,4.227-5.4,7.4-7.08c3.173-1.68,6.84-2.52,11-2.52
		c4.213,0,7.906,0.84,11.08,2.52c3.173,1.68,5.64,4.04,7.4,7.08c1.76,3.04,2.64,6.534,2.64,10.48v17.12c0,4-0.88,7.547-2.64,10.64
		c-1.76,3.094-4.227,5.48-7.4,7.16c-3.174,1.68-6.867,2.52-11.08,2.52C20.64,62.88,16.973,62.026,13.8,60.32z M31.92,50.4
		c1.813-1.866,2.72-4.346,2.72-7.44v-17.6c0-3.092-0.894-5.586-2.68-7.48c-1.788-1.893-4.174-2.84-7.16-2.84
		c-2.934,0-5.293,0.947-7.08,2.84c-1.788,1.894-2.68,4.388-2.68,7.48v17.6c0,3.094,0.893,5.574,2.68,7.44
		c1.786,1.868,4.146,2.8,7.08,2.8C27.732,53.2,30.106,52.268,31.92,50.4z"/>
	<path fill="none" stroke="#FFFFFF" stroke-miterlimit="10" d="M78.119,21.16c0.187-0.187,0.413-0.28,0.68-0.28h9.36
		c0.266,0,0.493,0.094,0.68,0.28c0.186,0.188,0.28,0.414,0.28,0.68v39.2c0,0.268-0.094,0.494-0.28,0.68
		c-0.188,0.188-0.414,0.28-0.68,0.28h-9.36c-0.268,0-0.494-0.092-0.68-0.28c-0.188-0.187-0.28-0.413-0.28-0.68v-2.72
		c0-0.16-0.054-0.252-0.16-0.28c-0.107-0.026-0.214,0.04-0.32,0.2c-2.134,2.88-5.44,4.32-9.92,4.32c-4.054,0-7.387-1.226-10-3.68
		c-2.613-2.452-3.92-5.893-3.92-10.32V21.84c0-0.266,0.093-0.492,0.28-0.68c0.186-0.187,0.413-0.28,0.68-0.28h9.28
		c0.266,0,0.492,0.094,0.68,0.28c0.187,0.188,0.28,0.414,0.28,0.68v23.92c0,2.134,0.572,3.868,1.72,5.2c1.146,1.334,2.733,2,4.76,2
		c1.813,0,3.306-0.546,4.48-1.64c1.172-1.092,1.893-2.52,2.16-4.28v-25.2C77.839,21.574,77.931,21.348,78.119,21.16z"/>
	<path fill="none" stroke="#FFFFFF" stroke-miterlimit="10" d="M122.479,21.44c0.426,0.214,0.586,0.614,0.48,1.2l-1.68,9.12
		c-0.054,0.64-0.428,0.828-1.12,0.56c-0.8-0.266-1.733-0.4-2.8-0.4c-0.428,0-1.014,0.054-1.76,0.16
		c-1.92,0.16-3.547,0.867-4.88,2.12c-1.333,1.253-2,2.92-2,5v21.84c0,0.268-0.094,0.494-0.28,0.68
		c-0.188,0.188-0.414,0.28-0.68,0.28h-9.36c-0.268,0-0.494-0.092-0.68-0.28c-0.188-0.187-0.28-0.413-0.28-0.68v-39.2
		c0-0.266,0.092-0.492,0.28-0.68c0.187-0.187,0.413-0.28,0.68-0.28h9.36c0.266,0,0.493,0.094,0.68,0.28
		c0.186,0.188,0.28,0.414,0.28,0.68v3.04c0,0.16,0.053,0.268,0.16,0.32c0.106,0.054,0.186,0.027,0.24-0.08
		c2.187-3.2,5.12-4.8,8.8-4.8C119.838,20.32,121.358,20.694,122.479,21.44z"/>
	<path fill="none" stroke="#FFFFFF" stroke-miterlimit="10" d="M169.758,22.04c2.72,1.2,4.84,2.84,6.36,4.92s2.28,4.4,2.28,6.96
		v27.12c0,0.268-0.094,0.494-0.28,0.68c-0.188,0.188-0.414,0.28-0.68,0.28h-9.36c-0.268,0-0.494-0.092-0.68-0.28
		c-0.188-0.187-0.28-0.413-0.28-0.68V58.4c0-0.16-0.054-0.266-0.16-0.32c-0.107-0.053-0.214,0-0.32,0.16
		c-2.24,2.934-5.84,4.4-10.8,4.4c-4.16,0-7.52-1.013-10.08-3.04c-2.56-2.026-3.84-5.013-3.84-8.96c0-4.106,1.44-7.292,4.32-9.56
		c2.88-2.266,6.986-3.4,12.32-3.4h8.16c0.267,0,0.4-0.133,0.4-0.4v-1.76c0-1.76-0.534-3.132-1.6-4.12
		c-1.067-0.986-2.667-1.48-4.8-1.48c-1.653,0-3.027,0.294-4.12,0.88c-1.094,0.588-1.8,1.414-2.12,2.48
		c-0.16,0.588-0.507,0.854-1.04,0.8l-9.68-1.28c-0.64-0.106-0.934-0.346-0.88-0.72c0.212-2.24,1.106-4.266,2.68-6.08
		c1.572-1.813,3.652-3.226,6.24-4.24c2.586-1.012,5.48-1.52,8.68-1.52C163.944,20.24,167.038,20.84,169.758,22.04z M164.718,52.4
		c1.6-1.226,2.4-2.8,2.4-4.72V44.8c0-0.266-0.134-0.4-0.4-0.4h-5.76c-2.4,0-4.28,0.454-5.64,1.36c-1.36,0.908-2.04,2.188-2.04,3.84
		c0,1.44,0.506,2.574,1.52,3.4c1.013,0.828,2.373,1.24,4.08,1.24C161.17,54.24,163.118,53.627,164.718,52.4z"/>
	<path fill="none" stroke="#FFFFFF" stroke-miterlimit="10" d="M211.358,21.44c0.426,0.214,0.586,0.614,0.48,1.2l-1.68,9.12
		c-0.054,0.64-0.428,0.828-1.12,0.56c-0.8-0.266-1.733-0.4-2.8-0.4c-0.428,0-1.014,0.054-1.76,0.16
		c-1.92,0.16-3.547,0.867-4.88,2.12c-1.333,1.253-2,2.92-2,5v21.84c0,0.268-0.094,0.494-0.28,0.68
		c-0.188,0.188-0.414,0.28-0.68,0.28h-9.36c-0.268,0-0.494-0.092-0.68-0.28c-0.188-0.187-0.28-0.413-0.28-0.68v-39.2
		c0-0.266,0.092-0.492,0.28-0.68c0.187-0.187,0.413-0.28,0.68-0.28h9.36c0.266,0,0.493,0.094,0.68,0.28
		c0.186,0.188,0.28,0.414,0.28,0.68v3.04c0,0.16,0.053,0.268,0.16,0.32c0.106,0.054,0.186,0.027,0.24-0.08
		c2.187-3.2,5.12-4.8,8.8-4.8C208.718,20.32,210.238,20.694,211.358,21.44z"/>
	<path fill="none" stroke="#FFFFFF" stroke-miterlimit="10" d="M252.639,44c-0.054,0.64-0.4,0.96-1.04,0.96h-24.72
		c-0.32,0-0.428,0.134-0.32,0.4c0.16,1.068,0.453,2.134,0.88,3.2c1.386,2.987,4.212,4.48,8.48,4.48
		c3.412-0.053,6.106-1.44,8.08-4.16c0.212-0.32,0.452-0.48,0.72-0.48c0.16,0,0.346,0.107,0.56,0.32l5.76,5.68
		c0.267,0.268,0.4,0.508,0.4,0.72c0,0.107-0.108,0.32-0.32,0.64c-1.76,2.188-4.027,3.88-6.8,5.08c-2.774,1.2-5.814,1.8-9.12,1.8
		c-4.587,0-8.467-1.04-11.64-3.12c-3.173-2.08-5.454-4.986-6.84-8.72c-1.12-2.666-1.68-6.16-1.68-10.48c0-2.932,0.4-5.52,1.2-7.76
		c1.226-3.786,3.373-6.8,6.44-9.04c3.066-2.24,6.707-3.36,10.92-3.36c5.333,0,9.613,1.547,12.84,4.64
		c3.226,3.094,5.186,7.228,5.88,12.4C252.639,39.228,252.745,41.494,252.639,44z M227.039,34.64c-0.213,0.694-0.4,1.547-0.56,2.56
		c0,0.267,0.132,0.4,0.4,0.4h13.84c0.32,0,0.426-0.133,0.32-0.4c-0.267-1.546-0.4-2.292-0.4-2.24c-0.48-1.6-1.32-2.84-2.52-3.72
		c-1.2-0.88-2.68-1.32-4.44-1.32C230.319,29.92,228.105,31.494,227.039,34.64z"/>
	<path fill="none" stroke="#FFFFFF" stroke-miterlimit="10" d="M284.879,22.04c2.72,1.2,4.84,2.84,6.36,4.92s2.28,4.4,2.28,6.96
		v27.12c0,0.268-0.094,0.494-0.28,0.68c-0.188,0.188-0.414,0.28-0.68,0.28h-9.36c-0.268,0-0.494-0.092-0.68-0.28
		c-0.188-0.187-0.28-0.413-0.28-0.68V58.4c0-0.16-0.054-0.266-0.16-0.32c-0.107-0.053-0.214,0-0.32,0.16
		c-2.24,2.934-5.84,4.4-10.8,4.4c-4.16,0-7.52-1.013-10.08-3.04c-2.56-2.026-3.84-5.013-3.84-8.96c0-4.106,1.44-7.292,4.32-9.56
		c2.88-2.266,6.986-3.4,12.32-3.4h8.16c0.267,0,0.4-0.133,0.4-0.4v-1.76c0-1.76-0.534-3.132-1.6-4.12
		c-1.067-0.986-2.667-1.48-4.8-1.48c-1.653,0-3.027,0.294-4.12,0.88c-1.094,0.588-1.8,1.414-2.12,2.48
		c-0.16,0.588-0.507,0.854-1.04,0.8l-9.68-1.28c-0.64-0.106-0.934-0.346-0.88-0.72c0.212-2.24,1.106-4.266,2.68-6.08
		c1.572-1.813,3.652-3.226,6.24-4.24c2.586-1.012,5.48-1.52,8.68-1.52C279.065,20.24,282.159,20.84,284.879,22.04z M279.839,52.4
		c1.6-1.226,2.4-2.8,2.4-4.72V44.8c0-0.266-0.134-0.4-0.4-0.4h-5.76c-2.4,0-4.28,0.454-5.64,1.36c-1.36,0.908-2.04,2.188-2.04,3.84
		c0,1.44,0.506,2.574,1.52,3.4c1.013,0.828,2.373,1.24,4.08,1.24C276.292,54.24,278.239,53.627,279.839,52.4z"/>
	<path fill="none" stroke="#FFFFFF" stroke-miterlimit="10" d="M308.479,61.04c-2.668-1.013-4.734-2.426-6.199-4.24
		c-1.468-1.813-2.201-3.866-2.201-6.16v-0.8c0-0.266,0.093-0.492,0.28-0.68c0.186-0.187,0.413-0.28,0.68-0.28h8.879
		c0.268,0,0.494,0.094,0.682,0.28c0.186,0.188,0.279,0.414,0.279,0.68v0.08c0,1.174,0.652,2.174,1.959,3
		c1.307,0.828,2.947,1.24,4.922,1.24c1.813,0,3.279-0.36,4.398-1.08c1.121-0.72,1.68-1.613,1.68-2.68c0-0.96-0.479-1.68-1.439-2.16
		c-0.959-0.48-2.533-0.986-4.719-1.52c-2.508-0.64-4.48-1.253-5.92-1.84c-3.414-1.172-6.135-2.612-8.16-4.32
		c-2.028-1.707-3.041-4.16-3.041-7.36c0-3.946,1.533-7.08,4.6-9.4c3.066-2.32,7.133-3.48,12.201-3.48c3.412,0,6.4,0.548,8.959,1.64
		c2.561,1.094,4.547,2.627,5.961,4.6c1.412,1.974,2.119,4.214,2.119,6.72c0,0.268-0.094,0.494-0.279,0.68
		c-0.188,0.188-0.414,0.28-0.68,0.28h-8.561c-0.268,0-0.494-0.093-0.68-0.28c-0.188-0.186-0.281-0.413-0.281-0.68
		c0-1.172-0.6-2.16-1.799-2.96c-1.201-0.8-2.787-1.2-4.76-1.2c-1.76,0-3.201,0.32-4.32,0.96c-1.121,0.64-1.68,1.52-1.68,2.64
		c0,1.067,0.545,1.867,1.639,2.4c1.094,0.534,2.92,1.094,5.48,1.68c0.586,0.16,1.252,0.334,2,0.52c0.746,0.188,1.547,0.414,2.4,0.68
		c3.787,1.12,6.771,2.56,8.959,4.32c2.188,1.76,3.281,4.32,3.281,7.68c0,3.947-1.561,7.027-4.68,9.24
		c-3.121,2.213-7.32,3.32-12.602,3.32C314.266,62.56,311.145,62.053,308.479,61.04z"/>
	<path fill="none" stroke="#FFFFFF" stroke-miterlimit="10" d="M10.8,139.12c-3.2-2.346-5.387-5.546-6.56-9.6
		c-0.748-2.506-1.12-5.226-1.12-8.16c0-3.146,0.373-5.972,1.12-8.48c1.226-3.946,3.44-7.04,6.64-9.28c3.2-2.24,7.04-3.36,11.52-3.36
		c4.373,0,8.106,1.107,11.2,3.32c3.092,2.214,5.28,5.293,6.56,9.24c0.853,2.667,1.28,5.468,1.28,8.4c0,2.88-0.374,5.574-1.12,8.08
		c-1.173,4.16-3.347,7.428-6.52,9.8c-3.173,2.374-7,3.56-11.48,3.56S14,141.467,10.8,139.12z M26.8,131.36
		c1.227-1.066,2.106-2.532,2.64-4.4c0.426-1.706,0.64-3.572,0.64-5.6c0-2.24-0.214-4.132-0.64-5.68
		c-0.587-1.813-1.494-3.227-2.72-4.24c-1.228-1.012-2.72-1.52-4.48-1.52c-1.814,0-3.32,0.508-4.52,1.52
		c-1.2,1.014-2.068,2.428-2.6,4.24c-0.428,1.28-0.64,3.173-0.64,5.68c0,2.4,0.186,4.268,0.56,5.6c0.532,1.868,1.426,3.334,2.68,4.4
		c1.252,1.068,2.786,1.6,4.6,1.6C24.08,132.96,25.572,132.428,26.8,131.36z"/>
	<path fill="none" stroke="#FFFFFF" stroke-miterlimit="10" d="M71.72,101.08c0.187,0.188,0.28,0.414,0.28,0.68v7.6
		c0,0.268-0.094,0.494-0.28,0.68c-0.188,0.188-0.414,0.28-0.68,0.28h-7.76c-0.268,0-0.4,0.134-0.4,0.4v30.32
		c0,0.268-0.094,0.494-0.28,0.68c-0.188,0.188-0.414,0.28-0.68,0.28h-9.36c-0.268,0-0.494-0.092-0.68-0.28
		c-0.188-0.187-0.28-0.413-0.28-0.68v-30.32c0-0.267-0.134-0.4-0.4-0.4h-4.72c-0.268,0-0.494-0.092-0.68-0.28
		c-0.188-0.187-0.28-0.413-0.28-0.68v-7.6c0-0.266,0.092-0.492,0.28-0.68c0.187-0.187,0.413-0.28,0.68-0.28h4.72
		c0.267,0,0.4-0.132,0.4-0.4v-1.76c0-3.306,0.506-5.88,1.52-7.72c1.012-1.84,2.652-3.146,4.92-3.92c2.266-0.772,5.4-1.106,9.4-1
		h3.04c0.266,0,0.493,0.094,0.68,0.28c0.186,0.188,0.28,0.414,0.28,0.68v6.48c0,0.268-0.094,0.494-0.28,0.68
		c-0.188,0.188-0.414,0.28-0.68,0.28h-2.64c-1.867,0.054-3.16,0.44-3.88,1.16c-0.72,0.72-1.08,2.04-1.08,3.96v0.88
		c0,0.268,0.132,0.4,0.4,0.4h7.76C71.307,100.8,71.533,100.894,71.72,101.08z"/>
	<path fill="#FFFFFF" d="M131.279,124c-0.054,0.64-0.4,0.96-1.04,0.96h-24.72c-0.32,0-0.428,0.134-0.32,0.4
		c0.16,1.068,0.453,2.134,0.88,3.2c1.386,2.987,4.212,4.48,8.48,4.48c3.412-0.053,6.106-1.44,8.08-4.16
		c0.212-0.32,0.452-0.48,0.72-0.48c0.16,0,0.346,0.107,0.56,0.32l5.76,5.68c0.267,0.268,0.4,0.508,0.4,0.72
		c0,0.107-0.108,0.32-0.32,0.64c-1.76,2.188-4.027,3.88-6.8,5.08c-2.774,1.2-5.814,1.8-9.12,1.8c-4.587,0-8.467-1.04-11.64-3.12
		c-3.173-2.08-5.454-4.986-6.84-8.72c-1.12-2.666-1.68-6.16-1.68-10.48c0-2.932,0.4-5.52,1.2-7.76c1.226-3.786,3.373-6.8,6.44-9.04
		c3.066-2.24,6.707-3.36,10.92-3.36c5.333,0,9.613,1.547,12.84,4.64c3.226,3.094,5.186,7.228,5.88,12.4
		C131.279,119.228,131.386,121.494,131.279,124z M105.679,114.64c-0.213,0.694-0.4,1.547-0.56,2.56c0,0.267,0.132,0.4,0.4,0.4h13.84
		c0.32,0,0.426-0.133,0.32-0.4c-0.267-1.546-0.4-2.292-0.4-2.24c-0.48-1.6-1.32-2.84-2.52-3.72c-1.2-0.88-2.68-1.32-4.44-1.32
		C108.959,109.92,106.746,111.494,105.679,114.64z"/>
	<path fill="#FFFFFF" d="M133.959,141.64c-0.134-0.24-0.094-0.52,0.12-0.84l12.88-19.12c0.106-0.16,0.106-0.32,0-0.48l-12.88-19.12
		c-0.107-0.212-0.16-0.4-0.16-0.56c0-0.426,0.267-0.64,0.8-0.64h10c0.48,0,0.853,0.214,1.12,0.64l7.2,10.96
		c0.212,0.32,0.4,0.32,0.56,0l7.2-10.96c0.266-0.426,0.64-0.64,1.12-0.64h10.72c0.373,0,0.612,0.12,0.72,0.36
		c0.106,0.24,0.052,0.52-0.16,0.84l-12.8,19.12c-0.054,0.16-0.054,0.32,0,0.48l12.8,19.12c0.106,0.16,0.16,0.348,0.16,0.56
		c0,0.428-0.24,0.64-0.72,0.64h-10.08c-0.48,0-0.854-0.212-1.12-0.64l-7.2-10.96c-0.16-0.32-0.32-0.32-0.48,0l-7.2,10.96
		c-0.268,0.428-0.64,0.64-1.12,0.64h-10.72C134.345,142,134.092,141.88,133.959,141.64z"/>
	<path fill="#FFFFFF" d="M217.519,121.52c0,3.68-0.507,7.014-1.52,10c-1.228,3.414-3.16,6.12-5.8,8.12s-5.908,3-9.8,3
		c-3.84,0-6.828-1.333-8.96-4c-0.108-0.16-0.214-0.212-0.32-0.16c-0.107,0.054-0.16,0.16-0.16,0.32v17.12
		c0,0.266-0.094,0.493-0.28,0.68c-0.188,0.186-0.414,0.28-0.68,0.28h-9.36c-0.268,0-0.494-0.094-0.68-0.28
		c-0.188-0.188-0.28-0.414-0.28-0.68v-54.08c0-0.266,0.092-0.492,0.28-0.68c0.187-0.187,0.413-0.28,0.68-0.28h9.36
		c0.267,0,0.493,0.094,0.68,0.28c0.186,0.188,0.28,0.414,0.28,0.68v2.64c0,0.16,0.053,0.254,0.16,0.28
		c0.106,0.028,0.212-0.012,0.32-0.12c2.24-2.933,5.332-4.4,9.28-4.4c3.68,0,6.866,1.027,9.56,3.08c2.692,2.054,4.626,4.92,5.8,8.6
		C217.039,114.64,217.519,117.84,217.519,121.52z M205.839,121.36c0-3.36-0.56-6.026-1.68-8c-1.228-2.292-3.2-3.44-5.92-3.44
		c-2.454,0-4.294,1.147-5.52,3.44c-1.12,1.92-1.68,4.614-1.68,8.08c0,3.574,0.586,6.348,1.76,8.32c1.226,2.134,3.04,3.2,5.44,3.2
		s4.266-1.04,5.6-3.12C205.172,127.76,205.839,124.934,205.839,121.36z"/>
	<path fill="#FFFFFF" d="M261.279,124c-0.054,0.64-0.4,0.96-1.04,0.96h-24.72c-0.32,0-0.428,0.134-0.32,0.4
		c0.16,1.068,0.453,2.134,0.88,3.2c1.386,2.987,4.212,4.48,8.48,4.48c3.412-0.053,6.106-1.44,8.08-4.16
		c0.212-0.32,0.452-0.48,0.72-0.48c0.16,0,0.346,0.107,0.56,0.32l5.76,5.68c0.267,0.268,0.4,0.508,0.4,0.72
		c0,0.107-0.108,0.32-0.32,0.64c-1.76,2.188-4.027,3.88-6.8,5.08c-2.774,1.2-5.814,1.8-9.12,1.8c-4.587,0-8.467-1.04-11.64-3.12
		c-3.173-2.08-5.454-4.986-6.84-8.72c-1.12-2.666-1.68-6.16-1.68-10.48c0-2.932,0.4-5.52,1.2-7.76c1.226-3.786,3.373-6.8,6.44-9.04
		c3.066-2.24,6.707-3.36,10.92-3.36c5.333,0,9.613,1.547,12.84,4.64c3.226,3.094,5.186,7.228,5.88,12.4
		C261.279,119.228,261.386,121.494,261.279,124z M235.679,114.64c-0.213,0.694-0.4,1.547-0.56,2.56c0,0.267,0.132,0.4,0.4,0.4h13.84
		c0.32,0,0.426-0.133,0.32-0.4c-0.267-1.546-0.4-2.292-0.4-2.24c-0.48-1.6-1.32-2.84-2.52-3.72c-1.2-0.88-2.68-1.32-4.44-1.32
		C238.959,109.92,236.746,111.494,235.679,114.64z"/>
	<path fill="#FFFFFF" d="M293.278,101.44c0.426,0.214,0.586,0.614,0.48,1.2l-1.68,9.12c-0.054,0.64-0.428,0.828-1.12,0.56
		c-0.8-0.266-1.733-0.4-2.8-0.4c-0.428,0-1.014,0.054-1.76,0.16c-1.92,0.16-3.547,0.867-4.88,2.12c-1.333,1.253-2,2.92-2,5v21.84
		c0,0.268-0.094,0.494-0.28,0.68c-0.188,0.188-0.414,0.28-0.68,0.28h-9.36c-0.268,0-0.494-0.092-0.68-0.28
		c-0.188-0.187-0.28-0.413-0.28-0.68v-39.2c0-0.266,0.092-0.492,0.28-0.68c0.187-0.187,0.413-0.28,0.68-0.28h9.36
		c0.266,0,0.493,0.094,0.68,0.28c0.186,0.188,0.28,0.414,0.28,0.68v3.04c0,0.16,0.053,0.268,0.16,0.32
		c0.106,0.054,0.186,0.027,0.24-0.08c2.187-3.2,5.12-4.8,8.8-4.8C290.638,100.32,292.158,100.694,293.278,101.44z"/>
	<path fill="#FFFFFF" d="M322.678,109.64c-0.188,0.188-0.414,0.28-0.68,0.28h-7.68c-0.268,0-0.4,0.134-0.4,0.4v16.96
		c0,1.76,0.359,3.068,1.08,3.92c0.719,0.854,1.879,1.28,3.48,1.28h2.639c0.268,0,0.492,0.094,0.68,0.28
		c0.188,0.188,0.281,0.414,0.281,0.68v7.6c0,0.587-0.32,0.934-0.961,1.04c-2.24,0.106-3.84,0.16-4.799,0.16
		c-4.428,0-7.734-0.733-9.92-2.2c-2.188-1.466-3.309-4.226-3.361-8.28v-21.44c0-0.266-0.133-0.4-0.398-0.4h-4.561
		c-0.268,0-0.494-0.092-0.68-0.28c-0.188-0.187-0.28-0.413-0.28-0.68v-7.12c0-0.266,0.093-0.492,0.28-0.68
		c0.186-0.187,0.412-0.28,0.68-0.28h4.561c0.266,0,0.398-0.132,0.398-0.4v-9.52c0-0.266,0.094-0.493,0.281-0.68
		c0.186-0.186,0.412-0.28,0.68-0.28h8.959c0.268,0,0.494,0.094,0.682,0.28c0.186,0.188,0.279,0.414,0.279,0.68v9.52
		c0,0.268,0.133,0.4,0.4,0.4h7.68c0.266,0,0.492,0.094,0.68,0.28c0.186,0.188,0.279,0.414,0.279,0.68v7.12
		C322.957,109.228,322.863,109.454,322.678,109.64z"/>
	<path fill="#FFFFFF" d="M331.316,94.44c-1.2-1.2-1.8-2.706-1.8-4.52c0-1.866,0.586-3.386,1.76-4.56
		c1.173-1.172,2.692-1.76,4.561-1.76c1.866,0,3.386,0.587,4.56,1.76c1.173,1.174,1.76,2.694,1.76,4.56c0,1.814-0.6,3.32-1.8,4.52
		c-1.2,1.2-2.707,1.8-4.52,1.8C334.022,96.24,332.517,95.64,331.316,94.44z M330.356,141.72c-0.188-0.187-0.279-0.413-0.279-0.68
		v-39.28c0-0.266,0.092-0.492,0.279-0.68c0.187-0.187,0.413-0.28,0.681-0.28h9.359c0.267,0,0.493,0.094,0.681,0.28
		c0.186,0.188,0.279,0.414,0.279,0.68v39.28c0,0.268-0.094,0.494-0.279,0.68c-0.188,0.188-0.414,0.28-0.681,0.28h-9.359
		C330.77,142,330.543,141.908,330.356,141.72z"/>
	<path fill="#FFFFFF" d="M357.196,141.04c-2.668-1.013-4.734-2.426-6.2-4.24c-1.468-1.813-2.2-3.866-2.2-6.16v-0.8
		c0-0.266,0.093-0.492,0.28-0.68c0.187-0.187,0.412-0.28,0.68-0.28h8.88c0.267,0,0.493,0.094,0.681,0.28
		c0.186,0.188,0.279,0.414,0.279,0.68v0.08c0,1.174,0.653,2.174,1.96,3c1.307,0.828,2.946,1.24,4.921,1.24
		c1.813,0,3.279-0.36,4.399-1.08c1.12-0.72,1.68-1.613,1.68-2.68c0-0.96-0.479-1.68-1.439-2.16c-0.96-0.48-2.534-0.986-4.72-1.52
		c-2.508-0.64-4.48-1.253-5.92-1.84c-3.414-1.172-6.134-2.612-8.16-4.32c-2.027-1.707-3.04-4.16-3.04-7.36
		c0-3.946,1.532-7.08,4.6-9.4c3.066-2.32,7.133-3.48,12.2-3.48c3.412,0,6.4,0.548,8.96,1.64c2.56,1.094,4.546,2.627,5.96,4.6
		c1.412,1.974,2.12,4.214,2.12,6.72c0,0.268-0.094,0.494-0.28,0.68c-0.188,0.188-0.414,0.28-0.68,0.28h-8.561
		c-0.268,0-0.493-0.093-0.68-0.28c-0.188-0.186-0.28-0.413-0.28-0.68c0-1.172-0.6-2.16-1.8-2.96c-1.2-0.8-2.787-1.2-4.76-1.2
		c-1.76,0-3.2,0.32-4.32,0.96s-1.68,1.52-1.68,2.64c0,1.067,0.546,1.867,1.64,2.4c1.093,0.534,2.92,1.094,5.48,1.68
		c0.586,0.16,1.252,0.334,2,0.52c0.746,0.188,1.546,0.414,2.399,0.68c3.787,1.12,6.772,2.56,8.96,4.32
		c2.187,1.76,3.28,4.32,3.28,7.68c0,3.947-1.56,7.027-4.68,9.24c-3.12,2.213-7.32,3.32-12.601,3.32
		C362.982,142.56,359.862,142.053,357.196,141.04z"/>
	<path fill="#FFFFFF" d="M427.036,124c-0.054,0.64-0.399,0.96-1.04,0.96h-24.72c-0.32,0-0.428,0.134-0.32,0.4
		c0.16,1.068,0.453,2.134,0.88,3.2c1.387,2.987,4.213,4.48,8.48,4.48c3.412-0.053,6.106-1.44,8.08-4.16
		c0.212-0.32,0.452-0.48,0.72-0.48c0.16,0,0.347,0.107,0.56,0.32l5.761,5.68c0.266,0.268,0.399,0.508,0.399,0.72
		c0,0.107-0.107,0.32-0.319,0.64c-1.761,2.188-4.028,3.88-6.801,5.08c-2.773,1.2-5.813,1.8-9.119,1.8
		c-4.588,0-8.468-1.04-11.641-3.12c-3.174-2.08-5.453-4.986-6.84-8.72c-1.12-2.666-1.68-6.16-1.68-10.48
		c0-2.932,0.399-5.52,1.2-7.76c1.226-3.786,3.372-6.8,6.439-9.04c3.066-2.24,6.706-3.36,10.92-3.36c5.333,0,9.612,1.547,12.84,4.64
		c3.227,3.094,5.187,7.228,5.88,12.4C427.036,119.228,427.143,121.494,427.036,124z M401.437,114.64
		c-0.214,0.694-0.4,1.547-0.561,2.56c0,0.267,0.133,0.4,0.4,0.4h13.84c0.32,0,0.427-0.133,0.32-0.4c-0.268-1.546-0.4-2.292-0.4-2.24
		c-0.479-1.6-1.32-2.84-2.52-3.72c-1.2-0.88-2.681-1.32-4.44-1.32C404.716,109.92,402.503,111.494,401.437,114.64z"/>
</g>
</svg>
