<?xml version="1.0" encoding="utf-8"?>
<!-- Generator: Adobe Illustrator 16.0.0, SVG Export Plug-In . SVG Version: 6.00 Build 0)  -->
<!DOCTYPE svg PUBLIC "-//W3C//DTD SVG 1.1//EN" "http://www.w3.org/Graphics/SVG/1.1/DTD/svg11.dtd">
<svg version="1.1" id="Layer_1" xmlns="http://www.w3.org/2000/svg" xmlns:xlink="http://www.w3.org/1999/xlink" x="0px" y="0px"
	 width="434px" height="178px" viewBox="0 0 434 178" enable-background="new 0 0 434 178" xml:space="preserve">
<g>
	<path fill="none" stroke="#000000" stroke-miterlimit="10" d="M22.16,62.7L8,8.54L7.92,8.22c0-0.48,0.292-0.72,0.88-0.72h9.92
		c0.532,0,0.88,0.268,1.04,0.8l7.6,32.56c0.053,0.214,0.133,0.32,0.24,0.32c0.106,0,0.186-0.106,0.24-0.32L35.2,8.38
		c0.16-0.586,0.506-0.88,1.04-0.88h9.68c0.586,0,0.96,0.268,1.12,0.8l8,32.56c0.052,0.16,0.132,0.254,0.24,0.28
		c0.106,0.027,0.187-0.066,0.24-0.28l7.36-32.48c0.16-0.586,0.506-0.88,1.04-0.88h9.44c0.747,0,1.04,0.348,0.88,1.04L61.12,62.7
		c-0.16,0.534-0.534,0.8-1.12,0.8h-9.52c-0.534,0-0.88-0.266-1.04-0.8l-8.16-34.64c-0.054-0.212-0.133-0.32-0.24-0.32
		c-0.107,0-0.188,0.107-0.24,0.32l-7.6,34.56c-0.108,0.587-0.454,0.88-1.04,0.88h-8.88C22.692,63.5,22.32,63.234,22.16,62.7z"/>
	<path fill="none" stroke="#000000" stroke-miterlimit="10" d="M112.08,45.5c-0.054,0.64-0.4,0.96-1.04,0.96H86.32
		c-0.32,0-0.428,0.134-0.32,0.4c0.16,1.068,0.453,2.134,0.88,3.2c1.386,2.987,4.212,4.48,8.48,4.48
		c3.412-0.053,6.106-1.44,8.08-4.16c0.212-0.32,0.452-0.48,0.72-0.48c0.16,0,0.346,0.107,0.56,0.32l5.76,5.68
		c0.267,0.268,0.4,0.508,0.4,0.72c0,0.107-0.108,0.32-0.32,0.64c-1.76,2.188-4.027,3.88-6.8,5.08c-2.774,1.2-5.814,1.8-9.12,1.8
		c-4.587,0-8.467-1.04-11.64-3.12c-3.173-2.08-5.454-4.986-6.84-8.72c-1.12-2.666-1.68-6.16-1.68-10.48c0-2.932,0.4-5.52,1.2-7.76
		c1.226-3.786,3.373-6.8,6.44-9.04c3.066-2.24,6.707-3.36,10.92-3.36c5.333,0,9.613,1.547,12.84,4.64
		c3.226,3.094,5.186,7.228,5.88,12.4C112.08,40.728,112.187,42.994,112.08,45.5z M86.48,36.14c-0.213,0.694-0.4,1.547-0.56,2.56
		c0,0.267,0.132,0.4,0.4,0.4h13.84c0.32,0,0.426-0.133,0.32-0.4c-0.267-1.546-0.4-2.292-0.4-2.24c-0.48-1.6-1.32-2.84-2.52-3.72
		c-1.2-0.88-2.68-1.32-4.44-1.32C89.76,31.42,87.546,32.994,86.48,36.14z"/>
	<path fill="none" stroke="#000000" stroke-miterlimit="10" d="M142.039,60.94c-3.12-2.132-5.348-5.066-6.68-8.8
		c-0.908-2.667-1.36-5.813-1.36-9.44c0-3.573,0.452-6.667,1.36-9.28c1.28-3.626,3.493-6.48,6.64-8.56
		c3.146-2.08,6.853-3.12,11.12-3.12c4.266,0,8.012,1.067,11.24,3.2c3.226,2.134,5.373,4.828,6.44,8.08
		c0.426,1.28,0.64,2.24,0.64,2.88v0.16c0,0.48-0.268,0.774-0.8,0.88l-9.2,1.36h-0.16c-0.48,0-0.8-0.266-0.96-0.8l-0.24-1.28
		c-0.374-1.386-1.2-2.533-2.48-3.44c-1.28-0.906-2.8-1.36-4.56-1.36c-1.708,0-3.147,0.428-4.32,1.28c-1.174,0.854-2,2.027-2.48,3.52
		c-0.587,1.6-0.88,3.787-0.88,6.56c0,2.774,0.266,4.96,0.8,6.56c0.48,1.6,1.32,2.854,2.52,3.76c1.2,0.907,2.653,1.36,4.36,1.36
		c1.652,0,3.106-0.44,4.36-1.32c1.252-0.88,2.12-2.093,2.6-3.64c0.052-0.106,0.08-0.266,0.08-0.48c0.052-0.053,0.08-0.132,0.08-0.24
		c0.053-0.64,0.426-0.906,1.12-0.8l9.2,1.44c0.532,0.107,0.8,0.4,0.8,0.88c0,0.428-0.16,1.228-0.48,2.4
		c-1.12,3.574-3.293,6.374-6.52,8.4c-3.228,2.027-6.947,3.04-11.16,3.04C148.852,64.14,145.159,63.074,142.039,60.94z"/>
	<path fill="none" stroke="#000000" stroke-miterlimit="10" d="M203.038,22.94c0.426,0.214,0.586,0.614,0.48,1.2l-1.68,9.12
		c-0.054,0.64-0.428,0.828-1.12,0.56c-0.8-0.266-1.733-0.4-2.8-0.4c-0.428,0-1.014,0.054-1.76,0.16
		c-1.92,0.16-3.547,0.867-4.88,2.12c-1.333,1.253-2,2.92-2,5v21.84c0,0.268-0.094,0.494-0.28,0.68
		c-0.188,0.188-0.414,0.28-0.68,0.28h-9.36c-0.268,0-0.494-0.092-0.68-0.28c-0.188-0.187-0.28-0.413-0.28-0.68v-39.2
		c0-0.266,0.092-0.492,0.28-0.68c0.187-0.187,0.413-0.28,0.68-0.28h9.36c0.266,0,0.493,0.094,0.68,0.28
		c0.186,0.188,0.28,0.414,0.28,0.68v3.04c0,0.16,0.053,0.268,0.16,0.32c0.106,0.054,0.186,0.027,0.24-0.08
		c2.187-3.2,5.12-4.8,8.8-4.8C200.398,21.82,201.918,22.194,203.038,22.94z"/>
	<path fill="none" stroke="#000000" stroke-miterlimit="10" d="M233.838,23.54c2.72,1.2,4.84,2.84,6.36,4.92
		c1.52,2.08,2.28,4.4,2.28,6.96v27.12c0,0.268-0.094,0.494-0.28,0.68c-0.188,0.188-0.414,0.28-0.681,0.28h-9.359
		c-0.268,0-0.494-0.092-0.68-0.28c-0.188-0.187-0.28-0.413-0.28-0.68V59.9c0-0.16-0.054-0.266-0.16-0.32
		c-0.107-0.053-0.214,0-0.32,0.16c-2.239,2.934-5.84,4.4-10.8,4.4c-4.16,0-7.52-1.013-10.08-3.04c-2.56-2.026-3.84-5.013-3.84-8.96
		c0-4.106,1.44-7.292,4.32-9.56c2.88-2.266,6.987-3.4,12.32-3.4h8.16c0.267,0,0.4-0.133,0.4-0.4v-1.76
		c0-1.76-0.534-3.132-1.601-4.12c-1.067-0.986-2.667-1.48-4.8-1.48c-1.653,0-3.027,0.294-4.12,0.88
		c-1.094,0.588-1.8,1.414-2.119,2.48c-0.16,0.588-0.508,0.854-1.041,0.8l-9.68-1.28c-0.64-0.106-0.934-0.346-0.88-0.72
		c0.212-2.24,1.106-4.266,2.68-6.08c1.572-1.813,3.652-3.226,6.24-4.24c2.587-1.012,5.48-1.52,8.68-1.52
		C228.024,21.74,231.118,22.34,233.838,23.54z M228.798,53.9c1.601-1.226,2.4-2.8,2.4-4.72V46.3c0-0.266-0.134-0.4-0.4-0.4h-5.76
		c-2.4,0-4.28,0.454-5.64,1.36c-1.36,0.908-2.041,2.188-2.041,3.84c0,1.44,0.507,2.574,1.521,3.4c1.013,0.828,2.373,1.24,4.08,1.24
		C225.251,55.74,227.198,55.127,228.798,53.9z"/>
	<path fill="none" stroke="#000000" stroke-miterlimit="10" d="M273.64,22.58c0.186,0.188,0.279,0.414,0.279,0.68v7.6
		c0,0.268-0.094,0.494-0.279,0.68c-0.188,0.188-0.414,0.28-0.681,0.28h-7.76c-0.268,0-0.399,0.134-0.399,0.4v30.32
		c0,0.268-0.094,0.494-0.28,0.68c-0.188,0.188-0.414,0.28-0.68,0.28h-9.36c-0.268,0-0.494-0.092-0.68-0.28
		c-0.188-0.187-0.28-0.413-0.28-0.68V32.22c0-0.267-0.134-0.4-0.4-0.4h-4.72c-0.268,0-0.494-0.092-0.68-0.28
		c-0.188-0.187-0.28-0.413-0.28-0.68v-7.6c0-0.266,0.093-0.492,0.28-0.68c0.186-0.187,0.412-0.28,0.68-0.28h4.72
		c0.267,0,0.4-0.132,0.4-0.4v-1.76c0-3.306,0.506-5.88,1.52-7.72c1.013-1.84,2.652-3.146,4.92-3.92c2.267-0.772,5.4-1.106,9.4-1
		h3.04c0.267,0,0.492,0.094,0.68,0.28c0.187,0.188,0.28,0.414,0.28,0.68v6.48c0,0.268-0.094,0.494-0.28,0.68
		c-0.188,0.188-0.413,0.28-0.68,0.28h-2.64c-1.868,0.054-3.16,0.44-3.881,1.16c-0.72,0.72-1.079,2.04-1.079,3.96v0.88
		c0,0.268,0.132,0.4,0.399,0.4h7.76C273.226,22.3,273.452,22.394,273.64,22.58z"/>
	<path fill="none" stroke="#000000" stroke-miterlimit="10" d="M303.799,31.14c-0.188,0.188-0.414,0.28-0.681,0.28h-7.68
		c-0.268,0-0.4,0.134-0.4,0.4v16.96c0,1.76,0.36,3.068,1.08,3.92c0.72,0.854,1.88,1.28,3.48,1.28h2.64
		c0.267,0,0.492,0.094,0.68,0.28c0.187,0.188,0.28,0.414,0.28,0.68v7.6c0,0.587-0.32,0.934-0.96,1.04
		c-2.24,0.106-3.84,0.16-4.8,0.16c-4.428,0-7.733-0.733-9.92-2.2c-2.188-1.466-3.308-4.226-3.36-8.28V31.82
		c0-0.266-0.134-0.4-0.399-0.4h-4.561c-0.268,0-0.493-0.092-0.68-0.28c-0.188-0.187-0.28-0.413-0.28-0.68v-7.12
		c0-0.266,0.093-0.492,0.28-0.68c0.187-0.187,0.412-0.28,0.68-0.28h4.561c0.266,0,0.399-0.132,0.399-0.4v-9.52
		c0-0.266,0.093-0.493,0.28-0.68c0.187-0.186,0.412-0.28,0.68-0.28h8.96c0.267,0,0.493,0.094,0.681,0.28
		c0.186,0.188,0.279,0.414,0.279,0.68v9.52c0,0.268,0.133,0.4,0.4,0.4h7.68c0.267,0,0.493,0.094,0.681,0.28
		c0.186,0.188,0.279,0.414,0.279,0.68v7.12C304.078,30.728,303.984,30.954,303.799,31.14z"/>
	<path fill="none" stroke="#000000" stroke-miterlimit="10" d="M33.48,127.14c-0.188,0.188-0.414,0.28-0.68,0.28h-7.68
		c-0.268,0-0.4,0.134-0.4,0.4v16.96c0,1.76,0.36,3.067,1.08,3.92c0.72,0.854,1.88,1.28,3.48,1.28h2.64
		c0.266,0,0.493,0.094,0.68,0.279c0.186,0.188,0.28,0.414,0.28,0.681v7.6c0,0.588-0.32,0.934-0.96,1.04
		c-2.24,0.106-3.84,0.16-4.8,0.16c-4.428,0-7.734-0.732-9.92-2.2c-2.188-1.466-3.308-4.227-3.36-8.28V127.82
		c0-0.267-0.134-0.4-0.4-0.4H8.88c-0.268,0-0.494-0.093-0.68-0.28c-0.188-0.186-0.28-0.412-0.28-0.68v-7.12
		c0-0.266,0.093-0.492,0.28-0.68c0.186-0.187,0.412-0.28,0.68-0.28h4.56c0.266,0,0.4-0.133,0.4-0.399v-9.521
		c0-0.267,0.093-0.492,0.28-0.68c0.186-0.187,0.413-0.28,0.68-0.28h8.96c0.267,0,0.493,0.094,0.68,0.28
		c0.187,0.188,0.28,0.413,0.28,0.68v9.521c0,0.267,0.132,0.399,0.4,0.399h7.68c0.267,0,0.493,0.094,0.68,0.28
		c0.186,0.188,0.28,0.414,0.28,0.68v7.12C33.76,126.728,33.666,126.954,33.48,127.14z"/>
	<path fill="none" stroke="#000000" stroke-miterlimit="10" d="M72.319,121.66c2.613,2.613,3.92,6.16,3.92,10.64v26.24
		c0,0.268-0.094,0.494-0.28,0.68c-0.188,0.188-0.414,0.28-0.68,0.28h-9.36c-0.268,0-0.494-0.093-0.68-0.28
		c-0.188-0.186-0.28-0.412-0.28-0.68v-23.92c0-2.133-0.6-3.866-1.8-5.2c-1.2-1.332-2.787-2-4.76-2c-1.974,0-3.56,0.668-4.76,2
		c-1.2,1.334-1.8,3.067-1.8,5.2v23.92c0,0.268-0.094,0.494-0.28,0.68c-0.188,0.188-0.414,0.28-0.68,0.28h-9.36
		c-0.268,0-0.494-0.093-0.68-0.28c-0.188-0.186-0.28-0.412-0.28-0.68v-54.08c0-0.267,0.092-0.492,0.28-0.68
		c0.187-0.187,0.413-0.28,0.68-0.28h9.36c0.266,0,0.493,0.094,0.68,0.28c0.186,0.188,0.28,0.413,0.28,0.68v17.68
		c0,0.16,0.053,0.268,0.16,0.32c0.106,0.054,0.186,0.027,0.24-0.08c2.187-3.093,5.44-4.64,9.76-4.64
		C66.266,117.74,69.706,119.048,72.319,121.66z"/>
	<path fill="none" stroke="#000000" stroke-miterlimit="10" d="M120.8,141.5c-0.054,0.64-0.4,0.96-1.04,0.96H95.04
		c-0.32,0-0.428,0.134-0.32,0.4c0.16,1.067,0.453,2.134,0.88,3.199c1.386,2.988,4.212,4.48,8.48,4.48
		c3.412-0.053,6.106-1.44,8.08-4.16c0.212-0.32,0.452-0.479,0.72-0.479c0.16,0,0.346,0.107,0.56,0.319l5.76,5.681
		c0.267,0.268,0.4,0.507,0.4,0.72c0,0.107-0.108,0.32-0.32,0.64c-1.76,2.188-4.027,3.88-6.8,5.08c-2.774,1.2-5.814,1.8-9.12,1.8
		c-4.587,0-8.467-1.04-11.64-3.12c-3.173-2.079-5.454-4.985-6.84-8.72c-1.12-2.666-1.68-6.16-1.68-10.479
		c0-2.933,0.4-5.521,1.2-7.761c1.226-3.786,3.373-6.8,6.44-9.04c3.066-2.239,6.707-3.359,10.92-3.359
		c5.333,0,9.613,1.547,12.84,4.64c3.226,3.094,5.186,7.228,5.88,12.4C120.8,136.728,120.906,138.994,120.8,141.5z M95.2,132.14
		c-0.213,0.694-0.4,1.548-0.56,2.561c0,0.268,0.132,0.399,0.4,0.399h13.84c0.32,0,0.426-0.132,0.32-0.399
		c-0.267-1.547-0.4-2.293-0.4-2.24c-0.48-1.6-1.32-2.84-2.52-3.72c-1.2-0.88-2.68-1.32-4.44-1.32
		C98.48,127.42,96.266,128.994,95.2,132.14z"/>
	<path d="M181.918,139.02c0,3.681-0.507,7.015-1.52,10c-1.228,3.414-3.16,6.12-5.8,8.12s-5.908,3-9.8,3c-3.84,0-6.828-1.332-8.96-4
		c-0.108-0.159-0.214-0.212-0.32-0.159c-0.107,0.054-0.16,0.159-0.16,0.319v17.12c0,0.267-0.094,0.492-0.28,0.68
		c-0.188,0.187-0.414,0.28-0.68,0.28h-9.36c-0.268,0-0.494-0.094-0.68-0.28c-0.188-0.188-0.28-0.413-0.28-0.68v-54.08
		c0-0.266,0.092-0.492,0.28-0.68c0.187-0.187,0.413-0.28,0.68-0.28h9.36c0.267,0,0.493,0.094,0.68,0.28
		c0.186,0.188,0.28,0.414,0.28,0.68v2.641c0,0.159,0.053,0.253,0.16,0.279c0.106,0.027,0.212-0.013,0.32-0.12
		c2.24-2.933,5.332-4.399,9.28-4.399c3.68,0,6.866,1.027,9.56,3.08c2.692,2.054,4.626,4.92,5.8,8.6
		C181.438,132.14,181.918,135.34,181.918,139.02z M170.239,138.86c0-3.36-0.56-6.026-1.68-8c-1.228-2.293-3.2-3.44-5.92-3.44
		c-2.454,0-4.294,1.147-5.52,3.44c-1.12,1.92-1.68,4.613-1.68,8.08c0,3.573,0.586,6.347,1.76,8.319c1.226,2.134,3.04,3.2,5.44,3.2
		s4.266-1.04,5.6-3.12C169.571,145.26,170.239,142.434,170.239,138.86z"/>
	<path d="M214.238,118.94c0.426,0.213,0.586,0.613,0.48,1.199l-1.681,9.12c-0.054,0.641-0.428,0.828-1.12,0.561
		c-0.8-0.267-1.733-0.4-2.8-0.4c-0.428,0-1.014,0.054-1.76,0.16c-1.92,0.16-3.547,0.867-4.88,2.12c-1.333,1.254-2,2.92-2,5v21.84
		c0,0.268-0.094,0.494-0.28,0.68c-0.188,0.188-0.414,0.28-0.68,0.28h-9.36c-0.268,0-0.494-0.093-0.68-0.28
		c-0.188-0.186-0.28-0.412-0.28-0.68v-39.2c0-0.266,0.092-0.492,0.28-0.68c0.187-0.187,0.413-0.28,0.68-0.28h9.36
		c0.266,0,0.493,0.094,0.68,0.28c0.186,0.188,0.28,0.414,0.28,0.68v3.04c0,0.16,0.053,0.268,0.16,0.32
		c0.106,0.054,0.186,0.027,0.24-0.08c2.187-3.2,5.12-4.8,8.8-4.8C211.598,117.82,213.118,118.193,214.238,118.94z"/>
	<path d="M225.438,156.62c-3.2-2.347-5.388-5.546-6.56-9.601c-0.748-2.506-1.12-5.226-1.12-8.159c0-3.146,0.372-5.973,1.12-8.48
		c1.227-3.946,3.439-7.04,6.64-9.28c3.2-2.239,7.04-3.359,11.521-3.359c4.372,0,8.105,1.107,11.199,3.319
		c3.093,2.214,5.28,5.294,6.561,9.24c0.853,2.668,1.28,5.468,1.28,8.4c0,2.88-0.374,5.573-1.12,8.08
		c-1.174,4.16-3.348,7.427-6.521,9.8c-3.174,2.374-7,3.56-11.479,3.56C232.479,160.14,228.639,158.968,225.438,156.62z
		 M241.438,148.86c1.227-1.066,2.106-2.533,2.641-4.4c0.426-1.706,0.64-3.572,0.64-5.6c0-2.24-0.214-4.133-0.64-5.681
		c-0.588-1.813-1.494-3.226-2.721-4.239c-1.228-1.013-2.72-1.521-4.479-1.521c-1.814,0-3.32,0.508-4.521,1.521
		c-1.2,1.014-2.067,2.427-2.6,4.239c-0.428,1.28-0.64,3.174-0.64,5.681c0,2.399,0.186,4.268,0.56,5.6
		c0.532,1.867,1.426,3.334,2.68,4.4c1.253,1.067,2.786,1.6,4.601,1.6C238.719,150.46,240.211,149.928,241.438,148.86z"/>
	<path d="M289.158,103.78c0.187-0.187,0.412-0.28,0.68-0.28h9.36c0.267,0,0.492,0.094,0.68,0.28c0.187,0.188,0.28,0.413,0.28,0.68
		v54.08c0,0.268-0.094,0.494-0.28,0.68c-0.188,0.188-0.413,0.28-0.68,0.28h-9.36c-0.268,0-0.493-0.093-0.68-0.28
		c-0.188-0.186-0.28-0.412-0.28-0.68v-2.64c0-0.16-0.054-0.253-0.16-0.28c-0.107-0.026-0.213,0.014-0.319,0.12
		c-2.24,2.934-5.308,4.399-9.2,4.399c-3.733,0-6.947-1.04-9.64-3.12c-2.694-2.079-4.628-4.932-5.801-8.56
		c-0.907-2.772-1.359-6-1.359-9.68c0-3.786,0.479-7.093,1.439-9.92c1.227-3.413,3.16-6.12,5.801-8.12c2.64-2,5.906-3,9.8-3
		c3.84,0,6.826,1.334,8.96,4c0.106,0.16,0.212,0.214,0.319,0.16c0.106-0.053,0.16-0.16,0.16-0.32v-17.12
		C288.878,104.193,288.971,103.968,289.158,103.78z M288.798,138.94c0-3.573-0.587-6.373-1.76-8.4
		c-1.228-2.08-3.014-3.12-5.359-3.12c-2.508,0-4.4,1.04-5.681,3.12c-1.334,2.08-2,4.907-2,8.479c0,3.2,0.561,5.868,1.681,8
		c1.332,2.294,3.306,3.44,5.92,3.44c2.399,0,4.266-1.146,5.6-3.44C288.265,145.048,288.798,142.354,288.798,138.94z"/>
	<path d="M332.918,118.66c0.186-0.187,0.412-0.28,0.68-0.28h9.36c0.266,0,0.492,0.094,0.68,0.28c0.187,0.188,0.28,0.414,0.28,0.68
		v39.2c0,0.268-0.094,0.494-0.28,0.68c-0.188,0.188-0.414,0.28-0.68,0.28h-9.36c-0.268,0-0.494-0.093-0.68-0.28
		c-0.188-0.186-0.28-0.412-0.28-0.68v-2.72c0-0.16-0.054-0.253-0.16-0.28c-0.107-0.026-0.214,0.04-0.32,0.2
		c-2.134,2.88-5.439,4.319-9.92,4.319c-4.054,0-7.388-1.226-10-3.68c-2.613-2.452-3.92-5.893-3.92-10.32v-26.72
		c0-0.266,0.093-0.492,0.28-0.68c0.187-0.187,0.412-0.28,0.68-0.28h9.28c0.267,0,0.492,0.094,0.68,0.28
		c0.187,0.188,0.28,0.414,0.28,0.68v23.92c0,2.134,0.572,3.868,1.72,5.2c1.146,1.334,2.732,2,4.76,2c1.813,0,3.307-0.546,4.48-1.64
		c1.173-1.093,1.893-2.521,2.16-4.28v-25.2C332.638,119.074,332.73,118.848,332.918,118.66z"/>
	<path d="M359.237,156.94c-3.12-2.133-5.348-5.066-6.68-8.801c-0.908-2.666-1.36-5.813-1.36-9.439c0-3.572,0.452-6.666,1.36-9.28
		c1.279-3.626,3.492-6.479,6.64-8.56c3.146-2.08,6.853-3.12,11.12-3.12c4.266,0,8.013,1.067,11.24,3.2
		c3.226,2.134,5.372,4.827,6.439,8.079c0.427,1.28,0.64,2.24,0.64,2.881v0.159c0,0.48-0.267,0.774-0.8,0.881l-9.2,1.359h-0.159
		c-0.48,0-0.801-0.266-0.96-0.8l-0.24-1.28c-0.374-1.386-1.2-2.532-2.48-3.439c-1.279-0.906-2.8-1.36-4.56-1.36
		c-1.708,0-3.147,0.428-4.32,1.28c-1.174,0.854-2,2.027-2.479,3.52c-0.588,1.601-0.88,3.788-0.88,6.561c0,2.773,0.266,4.96,0.8,6.56
		c0.479,1.601,1.319,2.854,2.52,3.76c1.2,0.908,2.652,1.36,4.36,1.36c1.652,0,3.106-0.44,4.359-1.32s2.12-2.092,2.601-3.64
		c0.053-0.106,0.08-0.267,0.08-0.48c0.053-0.052,0.08-0.132,0.08-0.239c0.052-0.641,0.426-0.906,1.12-0.8l9.199,1.439
		c0.533,0.107,0.801,0.4,0.801,0.88c0,0.428-0.16,1.228-0.48,2.4c-1.12,3.573-3.294,6.374-6.52,8.399
		c-3.228,2.028-6.948,3.04-11.16,3.04C366.05,160.14,362.357,159.074,359.237,156.94z"/>
	<path d="M418.517,127.14c-0.188,0.188-0.414,0.28-0.681,0.28h-7.68c-0.268,0-0.4,0.134-0.4,0.4v16.96c0,1.76,0.36,3.067,1.08,3.92
		c0.72,0.854,1.88,1.28,3.48,1.28h2.64c0.267,0,0.492,0.094,0.68,0.279c0.187,0.188,0.28,0.414,0.28,0.681v7.6
		c0,0.588-0.32,0.934-0.96,1.04c-2.24,0.106-3.84,0.16-4.8,0.16c-4.428,0-7.733-0.732-9.92-2.2c-2.188-1.466-3.308-4.227-3.36-8.28
		V127.82c0-0.267-0.134-0.4-0.399-0.4h-4.561c-0.268,0-0.493-0.093-0.68-0.28c-0.188-0.186-0.28-0.412-0.28-0.68v-7.12
		c0-0.266,0.093-0.492,0.28-0.68c0.187-0.187,0.412-0.28,0.68-0.28h4.561c0.266,0,0.399-0.133,0.399-0.399v-9.521
		c0-0.267,0.093-0.492,0.28-0.68c0.187-0.187,0.412-0.28,0.68-0.28h8.96c0.267,0,0.493,0.094,0.681,0.28
		c0.186,0.188,0.279,0.413,0.279,0.68v9.521c0,0.267,0.133,0.399,0.4,0.399h7.68c0.267,0,0.493,0.094,0.681,0.28
		c0.186,0.188,0.279,0.414,0.279,0.68v7.12C418.796,126.728,418.702,126.954,418.517,127.14z"/>
</g>
</svg>
