<?xml version="1.0" encoding="utf-8"?>
<!-- Generator: Adobe Illustrator 16.0.0, SVG Export Plug-In . SVG Version: 6.00 Build 0)  -->
<!DOCTYPE svg PUBLIC "-//W3C//DTD SVG 1.1//EN" "http://www.w3.org/Graphics/SVG/1.1/DTD/svg11.dtd">
<svg version="1.1" id="Layer_1" xmlns="http://www.w3.org/2000/svg" xmlns:xlink="http://www.w3.org/1999/xlink" x="0px" y="0px"
	 width="415px" height="238px" viewBox="0 0 415 238" enable-background="new 0 0 415 238" xml:space="preserve">
<g>
	<path fill="none" stroke="#FFFFFF" stroke-miterlimit="10" d="M18.285,61.794L4.125,7.634l-0.08-0.32c0-0.48,0.292-0.72,0.88-0.72
		h9.92c0.532,0,0.88,0.268,1.04,0.8l7.6,32.56c0.053,0.214,0.133,0.32,0.24,0.32c0.106,0,0.186-0.106,0.24-0.32l7.36-32.48
		c0.16-0.586,0.506-0.88,1.04-0.88h9.68c0.586,0,0.96,0.268,1.12,0.8l8,32.56c0.052,0.16,0.132,0.254,0.24,0.28
		c0.106,0.027,0.187-0.066,0.24-0.28l7.36-32.48c0.16-0.586,0.506-0.88,1.04-0.88h9.44c0.747,0,1.04,0.348,0.88,1.04l-13.12,54.16
		c-0.16,0.534-0.534,0.8-1.12,0.8h-9.52c-0.534,0-0.88-0.266-1.04-0.8l-8.16-34.64c-0.054-0.212-0.133-0.32-0.24-0.32
		c-0.107,0-0.188,0.107-0.24,0.32l-7.6,34.56c-0.108,0.587-0.454,0.88-1.04,0.88h-8.88C18.817,62.594,18.445,62.328,18.285,61.794z"
		/>
	<path fill="none" stroke="#FFFFFF" stroke-miterlimit="10" d="M108.205,24.754c2.613,2.614,3.92,6.16,3.92,10.64v26.24
		c0,0.268-0.094,0.494-0.28,0.68c-0.188,0.188-0.414,0.28-0.68,0.28h-9.36c-0.268,0-0.494-0.092-0.68-0.28
		c-0.188-0.187-0.28-0.413-0.28-0.68v-23.92c0-2.133-0.6-3.866-1.8-5.2c-1.2-1.333-2.787-2-4.76-2c-1.974,0-3.56,0.667-4.76,2
		c-1.2,1.334-1.8,3.067-1.8,5.2v23.92c0,0.268-0.094,0.494-0.28,0.68c-0.188,0.188-0.414,0.28-0.68,0.28h-9.36
		c-0.268,0-0.494-0.092-0.68-0.28c-0.188-0.187-0.28-0.413-0.28-0.68V7.554c0-0.266,0.092-0.493,0.28-0.68
		c0.187-0.186,0.413-0.28,0.68-0.28h9.36c0.266,0,0.493,0.094,0.68,0.28c0.186,0.188,0.28,0.414,0.28,0.68v17.68
		c0,0.16,0.053,0.268,0.16,0.32c0.106,0.054,0.186,0.027,0.24-0.08c2.187-3.092,5.44-4.64,9.76-4.64
		C102.151,20.834,105.591,22.141,108.205,24.754z"/>
	<path fill="none" stroke="#FFFFFF" stroke-miterlimit="10" d="M145.885,22.634c2.72,1.2,4.84,2.84,6.36,4.92s2.28,4.4,2.28,6.96
		v27.12c0,0.268-0.094,0.494-0.28,0.68c-0.188,0.188-0.414,0.28-0.68,0.28h-9.36c-0.268,0-0.494-0.092-0.68-0.28
		c-0.188-0.187-0.28-0.413-0.28-0.68v-2.64c0-0.16-0.054-0.266-0.16-0.32c-0.107-0.053-0.214,0-0.32,0.16
		c-2.24,2.934-5.84,4.4-10.8,4.4c-4.16,0-7.52-1.013-10.08-3.04c-2.56-2.026-3.84-5.013-3.84-8.96c0-4.106,1.44-7.292,4.32-9.56
		c2.88-2.266,6.986-3.4,12.32-3.4h8.16c0.267,0,0.4-0.133,0.4-0.4v-1.76c0-1.76-0.534-3.132-1.6-4.12
		c-1.067-0.986-2.667-1.48-4.8-1.48c-1.653,0-3.027,0.294-4.12,0.88c-1.094,0.588-1.8,1.414-2.12,2.48
		c-0.16,0.588-0.507,0.854-1.04,0.8l-9.68-1.28c-0.64-0.106-0.934-0.346-0.88-0.72c0.212-2.24,1.106-4.266,2.68-6.08
		c1.572-1.813,3.652-3.226,6.24-4.24c2.586-1.012,5.48-1.52,8.68-1.52C140.071,20.834,143.165,21.434,145.885,22.634z
		 M140.845,52.994c1.6-1.226,2.4-2.8,2.4-4.72v-2.88c0-0.266-0.134-0.4-0.4-0.4h-5.76c-2.4,0-4.28,0.454-5.64,1.36
		c-1.36,0.908-2.04,2.188-2.04,3.84c0,1.44,0.506,2.574,1.52,3.4c1.013,0.828,2.373,1.24,4.08,1.24
		C137.297,54.834,139.245,54.221,140.845,52.994z"/>
	<path fill="none" stroke="#FFFFFF" stroke-miterlimit="10" d="M184.886,30.234c-0.188,0.188-0.414,0.28-0.68,0.28h-7.68
		c-0.268,0-0.4,0.134-0.4,0.4v16.96c0,1.76,0.36,3.068,1.08,3.92c0.72,0.854,1.88,1.28,3.48,1.28h2.64
		c0.266,0,0.493,0.094,0.68,0.28c0.186,0.188,0.28,0.414,0.28,0.68v7.6c0,0.587-0.32,0.934-0.96,1.04
		c-2.24,0.106-3.84,0.16-4.8,0.16c-4.428,0-7.734-0.733-9.92-2.2c-2.188-1.466-3.308-4.226-3.36-8.28v-21.44
		c0-0.266-0.134-0.4-0.4-0.4h-4.56c-0.268,0-0.494-0.092-0.68-0.28c-0.188-0.187-0.28-0.413-0.28-0.68v-7.12
		c0-0.266,0.093-0.492,0.28-0.68c0.186-0.187,0.412-0.28,0.68-0.28h4.56c0.266,0,0.4-0.132,0.4-0.4v-9.52
		c0-0.266,0.093-0.493,0.28-0.68c0.186-0.186,0.413-0.28,0.68-0.28h8.96c0.267,0,0.493,0.094,0.68,0.28
		c0.187,0.188,0.28,0.414,0.28,0.68v9.52c0,0.268,0.132,0.4,0.4,0.4h7.68c0.267,0,0.493,0.094,0.68,0.28
		c0.186,0.188,0.28,0.414,0.28,0.68v7.12C185.166,29.821,185.072,30.047,184.886,30.234z"/>
	<path fill="none" stroke="#FFFFFF" stroke-miterlimit="10" d="M15.405,141.794l-11.52-39.28l-0.08-0.32c0-0.533,0.292-0.8,0.88-0.8
		h9.68c0.586,0,0.96,0.268,1.12,0.8l5.76,24.16c0.052,0.16,0.132,0.24,0.24,0.24c0.106,0,0.187-0.08,0.24-0.24l6-24.16
		c0.16-0.533,0.532-0.8,1.12-0.8h8.4c0.586,0,0.96,0.268,1.12,0.8l6.32,24.24c0.052,0.16,0.132,0.24,0.24,0.24
		c0.106,0,0.187-0.08,0.24-0.24l6.24-24.24c0.16-0.533,0.533-0.8,1.12-0.8l9.6,0.16c0.32,0,0.546,0.094,0.68,0.28
		c0.132,0.188,0.172,0.44,0.12,0.76l-11.68,39.2c-0.16,0.534-0.508,0.8-1.04,0.8h-9.68c-0.587,0-0.96-0.266-1.12-0.8l-6.16-21.44
		c-0.054-0.16-0.134-0.24-0.24-0.24c-0.107,0-0.188,0.08-0.24,0.24l-5.44,21.44c-0.16,0.534-0.534,0.8-1.12,0.8h-9.68
		C15.938,142.594,15.565,142.328,15.405,141.794z"/>
	<path fill="none" stroke="#FFFFFF" stroke-miterlimit="10" d="M103.005,124.594c-0.054,0.64-0.4,0.96-1.04,0.96h-24.72
		c-0.32,0-0.428,0.134-0.32,0.4c0.16,1.068,0.453,2.134,0.88,3.2c1.386,2.987,4.212,4.48,8.48,4.48
		c3.412-0.053,6.106-1.44,8.08-4.16c0.212-0.32,0.452-0.48,0.72-0.48c0.16,0,0.346,0.107,0.56,0.32l5.76,5.68
		c0.267,0.268,0.4,0.508,0.4,0.72c0,0.107-0.108,0.32-0.32,0.64c-1.76,2.188-4.027,3.88-6.8,5.08c-2.774,1.2-5.814,1.8-9.12,1.8
		c-4.587,0-8.467-1.04-11.64-3.12c-3.173-2.08-5.454-4.986-6.84-8.72c-1.12-2.666-1.68-6.16-1.68-10.48c0-2.932,0.4-5.52,1.2-7.76
		c1.226-3.786,3.373-6.8,6.44-9.04c3.066-2.24,6.707-3.36,10.92-3.36c5.333,0,9.613,1.547,12.84,4.64
		c3.226,3.094,5.186,7.228,5.88,12.4C103.005,119.821,103.111,122.087,103.005,124.594z M77.405,115.234
		c-0.213,0.694-0.4,1.547-0.56,2.56c0,0.267,0.132,0.4,0.4,0.4h13.84c0.32,0,0.426-0.133,0.32-0.4c-0.267-1.546-0.4-2.292-0.4-2.24
		c-0.48-1.6-1.32-2.84-2.52-3.72c-1.2-0.88-2.68-1.32-4.44-1.32C80.685,110.514,78.471,112.087,77.405,115.234z"/>
	<path fill="none" stroke="#FFFFFF" stroke-miterlimit="10" d="M151.644,102.634c2.72,1.2,4.84,2.84,6.36,4.92s2.28,4.4,2.28,6.96
		v27.12c0,0.268-0.094,0.494-0.28,0.68c-0.188,0.188-0.414,0.28-0.68,0.28h-9.36c-0.268,0-0.494-0.092-0.68-0.28
		c-0.188-0.187-0.28-0.413-0.28-0.68v-2.64c0-0.16-0.054-0.266-0.16-0.32c-0.107-0.053-0.214,0-0.32,0.16
		c-2.24,2.934-5.84,4.4-10.8,4.4c-4.16,0-7.52-1.013-10.08-3.04c-2.56-2.026-3.84-5.013-3.84-8.96c0-4.106,1.44-7.292,4.32-9.56
		c2.88-2.266,6.986-3.4,12.32-3.4h8.16c0.267,0,0.4-0.133,0.4-0.4v-1.76c0-1.76-0.534-3.132-1.6-4.12
		c-1.067-0.986-2.667-1.48-4.8-1.48c-1.653,0-3.027,0.294-4.12,0.88c-1.094,0.588-1.8,1.414-2.12,2.48
		c-0.16,0.588-0.507,0.854-1.04,0.8l-9.68-1.28c-0.64-0.106-0.934-0.346-0.88-0.72c0.212-2.24,1.106-4.266,2.68-6.08
		c1.572-1.813,3.652-3.226,6.24-4.24c2.586-1.012,5.48-1.52,8.68-1.52C145.831,100.834,148.924,101.434,151.644,102.634z
		 M146.604,132.994c1.6-1.226,2.4-2.8,2.4-4.72v-2.88c0-0.266-0.134-0.4-0.4-0.4h-5.76c-2.4,0-4.28,0.454-5.64,1.36
		c-1.36,0.908-2.04,2.188-2.04,3.84c0,1.44,0.506,2.574,1.52,3.4c1.013,0.828,2.373,1.24,4.08,1.24
		C143.057,134.834,145.004,134.221,146.604,132.994z"/>
	<path fill="none" stroke="#FFFFFF" stroke-miterlimit="10" d="M175.205,140.034c-3.12-2.132-5.348-5.066-6.68-8.8
		c-0.908-2.667-1.36-5.813-1.36-9.44c0-3.573,0.452-6.667,1.36-9.28c1.28-3.626,3.493-6.48,6.64-8.56
		c3.146-2.08,6.853-3.12,11.12-3.12c4.266,0,8.012,1.067,11.24,3.2c3.226,2.134,5.373,4.828,6.44,8.08
		c0.426,1.28,0.64,2.24,0.64,2.88v0.16c0,0.48-0.268,0.774-0.8,0.88l-9.2,1.36h-0.16c-0.48,0-0.8-0.266-0.96-0.8l-0.24-1.28
		c-0.374-1.386-1.2-2.533-2.48-3.44c-1.28-0.906-2.8-1.36-4.56-1.36c-1.708,0-3.147,0.428-4.32,1.28c-1.174,0.854-2,2.027-2.48,3.52
		c-0.587,1.6-0.88,3.787-0.88,6.56c0,2.774,0.266,4.96,0.8,6.56c0.48,1.6,1.32,2.854,2.52,3.76c1.2,0.907,2.653,1.36,4.36,1.36
		c1.652,0,3.106-0.44,4.36-1.32c1.252-0.88,2.12-2.093,2.6-3.64c0.052-0.106,0.08-0.266,0.08-0.48c0.052-0.053,0.08-0.132,0.08-0.24
		c0.053-0.64,0.426-0.906,1.12-0.8l9.2,1.44c0.532,0.107,0.8,0.4,0.8,0.88c0,0.428-0.16,1.228-0.48,2.4
		c-1.12,3.574-3.293,6.374-6.52,8.4c-3.228,2.027-6.947,3.04-11.16,3.04C182.017,143.234,178.324,142.167,175.205,140.034z"/>
	<path fill="none" stroke="#FFFFFF" stroke-miterlimit="10" d="M234.483,110.234c-0.188,0.188-0.414,0.28-0.68,0.28h-7.68
		c-0.268,0-0.4,0.134-0.4,0.4v16.96c0,1.76,0.36,3.068,1.08,3.92c0.72,0.854,1.88,1.28,3.48,1.28h2.64
		c0.266,0,0.493,0.094,0.68,0.28c0.186,0.188,0.28,0.414,0.28,0.68v7.6c0,0.587-0.32,0.934-0.96,1.04
		c-2.24,0.106-3.84,0.16-4.8,0.16c-4.428,0-7.734-0.733-9.92-2.2c-2.188-1.466-3.308-4.226-3.36-8.28v-21.44
		c0-0.266-0.134-0.4-0.4-0.4h-4.56c-0.268,0-0.494-0.092-0.68-0.28c-0.188-0.187-0.28-0.413-0.28-0.68v-7.12
		c0-0.266,0.093-0.492,0.28-0.68c0.186-0.187,0.412-0.28,0.68-0.28h4.56c0.266,0,0.4-0.132,0.4-0.4v-9.52
		c0-0.266,0.093-0.493,0.28-0.68c0.186-0.186,0.413-0.28,0.68-0.28h8.96c0.267,0,0.493,0.094,0.68,0.28
		c0.187,0.188,0.28,0.414,0.28,0.68v9.52c0,0.268,0.132,0.4,0.4,0.4h7.68c0.267,0,0.493,0.094,0.68,0.28
		c0.186,0.188,0.28,0.414,0.28,0.68v7.12C234.763,109.821,234.669,110.047,234.483,110.234z"/>
	<path fill="none" stroke="#FFFFFF" stroke-miterlimit="10" d="M265.843,101.754c0.187-0.187,0.413-0.28,0.68-0.28h9.36
		c0.266,0,0.493,0.094,0.68,0.28c0.186,0.188,0.28,0.414,0.28,0.68v39.2c0,0.268-0.094,0.494-0.28,0.68
		c-0.188,0.188-0.414,0.28-0.68,0.28h-9.36c-0.268,0-0.494-0.092-0.68-0.28c-0.188-0.187-0.28-0.413-0.28-0.68v-2.72
		c0-0.16-0.054-0.252-0.16-0.28c-0.107-0.026-0.214,0.04-0.32,0.2c-2.134,2.88-5.44,4.32-9.92,4.32c-4.054,0-7.387-1.226-10-3.68
		c-2.613-2.452-3.92-5.893-3.92-10.32v-26.72c0-0.266,0.093-0.492,0.28-0.68c0.186-0.187,0.413-0.28,0.68-0.28h9.28
		c0.266,0,0.492,0.094,0.68,0.28c0.187,0.188,0.28,0.414,0.28,0.68v23.92c0,2.134,0.572,3.868,1.72,5.2c1.146,1.334,2.733,2,4.76,2
		c1.813,0,3.306-0.546,4.48-1.64c1.172-1.092,1.893-2.52,2.16-4.28v-25.2C265.563,102.167,265.655,101.941,265.843,101.754z"/>
	<path fill="none" stroke="#FFFFFF" stroke-miterlimit="10" d="M310.842,102.634c2.721,1.2,4.84,2.84,6.361,4.92
		c1.52,2.08,2.279,4.4,2.279,6.96v27.12c0,0.268-0.094,0.494-0.279,0.68c-0.188,0.188-0.414,0.28-0.682,0.28h-9.359
		c-0.268,0-0.494-0.092-0.68-0.28c-0.188-0.187-0.279-0.413-0.279-0.68v-2.64c0-0.16-0.055-0.266-0.16-0.32
		c-0.107-0.053-0.215,0-0.32,0.16c-2.24,2.934-5.84,4.4-10.801,4.4c-4.16,0-7.52-1.013-10.08-3.04c-2.56-2.026-3.84-5.013-3.84-8.96
		c0-4.106,1.44-7.292,4.32-9.56c2.881-2.266,6.986-3.4,12.32-3.4h8.16c0.266,0,0.4-0.133,0.4-0.4v-1.76
		c0-1.76-0.535-3.132-1.602-4.12c-1.066-0.986-2.666-1.48-4.799-1.48c-1.654,0-3.027,0.294-4.121,0.88
		c-1.094,0.588-1.799,1.414-2.119,2.48c-0.16,0.588-0.508,0.854-1.041,0.8l-9.679-1.28c-0.64-0.106-0.934-0.346-0.88-0.72
		c0.212-2.24,1.106-4.266,2.68-6.08c1.572-1.813,3.652-3.226,6.24-4.24c2.586-1.012,5.48-1.52,8.68-1.52
		C305.029,100.834,308.123,101.434,310.842,102.634z M305.803,132.994c1.6-1.226,2.4-2.8,2.4-4.72v-2.88c0-0.266-0.135-0.4-0.4-0.4
		h-5.76c-2.4,0-4.281,0.454-5.641,1.36c-1.359,0.908-2.039,2.188-2.039,3.84c0,1.44,0.506,2.574,1.52,3.4
		c1.012,0.828,2.373,1.24,4.08,1.24C302.256,134.834,304.203,134.221,305.803,132.994z"/>
	<path fill="none" stroke="#FFFFFF" stroke-miterlimit="10" d="M327.683,142.314c-0.188-0.187-0.28-0.413-0.28-0.68v-54.08
		c0-0.266,0.093-0.493,0.28-0.68c0.186-0.186,0.412-0.28,0.68-0.28h9.36c0.266,0,0.492,0.094,0.68,0.28
		c0.187,0.188,0.28,0.414,0.28,0.68v54.08c0,0.268-0.094,0.494-0.28,0.68c-0.188,0.188-0.414,0.28-0.68,0.28h-9.36
		C328.095,142.594,327.868,142.501,327.683,142.314z"/>
	<path fill="none" stroke="#FFFFFF" stroke-miterlimit="10" d="M347.202,142.314c-0.188-0.187-0.28-0.413-0.28-0.68v-54.08
		c0-0.266,0.093-0.493,0.28-0.68c0.186-0.186,0.412-0.28,0.68-0.28h9.36c0.266,0,0.492,0.094,0.68,0.28
		c0.187,0.188,0.28,0.414,0.28,0.68v54.08c0,0.268-0.094,0.494-0.28,0.68c-0.188,0.188-0.414,0.28-0.68,0.28h-9.36
		C347.614,142.594,347.388,142.501,347.202,142.314z"/>
	<path fill="none" stroke="#FFFFFF" stroke-miterlimit="10" d="M365.801,158.234c-0.107-0.188-0.159-0.414-0.159-0.68v-7.36
		c0-0.268,0.092-0.494,0.279-0.68c0.187-0.188,0.413-0.28,0.681-0.28c2.239-0.054,4.012-0.24,5.319-0.56
		c1.307-0.32,2.347-0.934,3.12-1.84c0.772-0.908,1.373-2.24,1.8-4c0.053-0.108,0.053-0.267,0-0.48l-13.119-39.84
		c-0.054-0.106-0.08-0.24-0.08-0.4c0-0.48,0.292-0.72,0.88-0.72h10c0.586,0,0.96,0.268,1.12,0.8l6.72,25.92
		c0.053,0.16,0.133,0.24,0.24,0.24c0.105,0,0.186-0.08,0.239-0.24l6.721-25.92c0.16-0.533,0.532-0.8,1.12-0.8h9.76
		c0.32,0,0.546,0.094,0.68,0.28c0.133,0.188,0.146,0.467,0.04,0.84l-13.84,41.6c-1.334,3.893-2.693,6.813-4.08,8.76
		c-1.388,1.946-3.334,3.373-5.84,4.28c-2.508,0.906-6.054,1.36-10.64,1.36h-0.561C366.041,158.514,365.907,158.42,365.801,158.234z"
		/>
	<path fill="none" stroke="#FFFFFF" stroke-miterlimit="10" d="M32.085,166.874c0.187-0.186,0.413-0.28,0.68-0.28h9.36
		c0.266,0,0.493,0.094,0.68,0.28c0.186,0.188,0.28,0.414,0.28,0.68v54.08c0,0.268-0.094,0.494-0.28,0.68
		c-0.188,0.188-0.414,0.28-0.68,0.28h-9.36c-0.268,0-0.494-0.092-0.68-0.28c-0.188-0.187-0.28-0.413-0.28-0.68v-2.64
		c0-0.16-0.054-0.252-0.16-0.28c-0.107-0.026-0.214,0.014-0.32,0.12c-2.24,2.934-5.308,4.4-9.2,4.4c-3.734,0-6.947-1.04-9.64-3.12
		c-2.694-2.08-4.627-4.933-5.8-8.56c-0.908-2.772-1.36-6-1.36-9.68c0-3.786,0.48-7.092,1.44-9.92c1.226-3.413,3.16-6.12,5.8-8.12
		s5.906-3,9.8-3c3.84,0,6.826,1.333,8.96,4c0.106,0.16,0.212,0.213,0.32,0.16c0.106-0.052,0.16-0.16,0.16-0.32v-17.12
		C31.805,167.288,31.897,167.061,32.085,166.874z M31.725,202.034c0-3.572-0.587-6.373-1.76-8.4c-1.228-2.08-3.014-3.12-5.36-3.12
		c-2.507,0-4.4,1.04-5.68,3.12c-1.333,2.08-2,4.907-2,8.48c0,3.2,0.56,5.868,1.68,8c1.333,2.294,3.306,3.44,5.92,3.44
		c2.4,0,4.266-1.146,5.6-3.44C31.191,208.141,31.725,205.447,31.725,202.034z"/>
	<path fill="none" stroke="#FFFFFF" stroke-miterlimit="10" d="M58.204,219.714c-3.2-2.346-5.387-5.546-6.56-9.6
		c-0.748-2.506-1.12-5.226-1.12-8.16c0-3.146,0.373-5.972,1.12-8.48c1.226-3.946,3.44-7.04,6.64-9.28c3.2-2.24,7.04-3.36,11.52-3.36
		c4.373,0,8.106,1.107,11.2,3.32c3.092,2.214,5.28,5.293,6.56,9.24c0.853,2.667,1.28,5.468,1.28,8.4c0,2.88-0.374,5.574-1.12,8.08
		c-1.173,4.16-3.347,7.428-6.52,9.8c-3.173,2.374-7,3.56-11.48,3.56S61.404,222.061,58.204,219.714z M74.204,211.954
		c1.227-1.066,2.106-2.532,2.64-4.4c0.426-1.706,0.64-3.572,0.64-5.6c0-2.24-0.214-4.132-0.64-5.68
		c-0.587-1.813-1.494-3.227-2.72-4.24c-1.228-1.012-2.72-1.52-4.48-1.52c-1.814,0-3.32,0.508-4.52,1.52
		c-1.2,1.014-2.068,2.428-2.6,4.24c-0.428,1.28-0.64,3.173-0.64,5.68c0,2.4,0.186,4.268,0.56,5.6c0.532,1.868,1.426,3.334,2.68,4.4
		c1.252,1.068,2.786,1.6,4.6,1.6C71.484,213.554,72.977,213.021,74.204,211.954z"/>
	<path fill="#FFFFFF" d="M150.044,201.874c0,3.68-0.454,6.908-1.36,9.68c-1.228,3.627-3.188,6.48-5.88,8.56
		c-2.693,2.08-5.88,3.12-9.56,3.12c-3.894,0-6.96-1.466-9.2-4.4c-0.107-0.106-0.214-0.146-0.32-0.12
		c-0.107,0.027-0.16,0.12-0.16,0.28v2.64c0,0.268-0.094,0.494-0.28,0.68c-0.188,0.188-0.414,0.28-0.68,0.28h-9.36
		c-0.267,0-0.494-0.092-0.68-0.28c-0.188-0.187-0.28-0.413-0.28-0.68v-54.08c0-0.266,0.093-0.493,0.28-0.68
		c0.186-0.186,0.413-0.28,0.68-0.28h9.36c0.266,0,0.492,0.094,0.68,0.28c0.187,0.188,0.28,0.414,0.28,0.68v17.12
		c0,0.16,0.052,0.268,0.16,0.32c0.106,0.054,0.213,0,0.32-0.16c2.08-2.667,5.04-4,8.88-4c3.893,0,7.16,1,9.8,3
		c2.64,2,4.573,4.707,5.8,8.12C149.536,194.728,150.044,198.034,150.044,201.874z M138.364,202.114c0-3.68-0.64-6.506-1.92-8.48
		c-1.28-2.08-3.174-3.12-5.68-3.12c-2.347,0-4.134,1.04-5.36,3.12c-1.174,2.027-1.76,4.828-1.76,8.4c0,3.574,0.532,6.268,1.6,8.08
		c1.28,2.294,3.146,3.44,5.6,3.44c2.613,0,4.56-1.146,5.84-3.44C137.804,208.087,138.364,205.421,138.364,202.114z"/>
	<path fill="#FFFFFF" d="M193.884,204.594c-0.054,0.64-0.4,0.96-1.04,0.96h-24.72c-0.32,0-0.428,0.134-0.32,0.4
		c0.16,1.068,0.453,2.134,0.88,3.2c1.386,2.987,4.212,4.48,8.48,4.48c3.412-0.053,6.106-1.44,8.08-4.16
		c0.212-0.32,0.452-0.48,0.72-0.48c0.16,0,0.346,0.107,0.56,0.32l5.76,5.68c0.267,0.268,0.4,0.508,0.4,0.72
		c0,0.107-0.108,0.32-0.32,0.64c-1.76,2.188-4.027,3.88-6.8,5.08c-2.774,1.2-5.814,1.8-9.12,1.8c-4.587,0-8.467-1.04-11.64-3.12
		c-3.173-2.08-5.454-4.986-6.84-8.72c-1.12-2.666-1.68-6.16-1.68-10.48c0-2.932,0.4-5.52,1.2-7.76c1.226-3.786,3.373-6.8,6.44-9.04
		c3.066-2.24,6.707-3.36,10.92-3.36c5.333,0,9.613,1.547,12.84,4.64c3.226,3.094,5.186,7.228,5.88,12.4
		C193.884,199.821,193.99,202.087,193.884,204.594z M168.284,195.234c-0.213,0.694-0.4,1.547-0.56,2.56c0,0.267,0.132,0.4,0.4,0.4
		h13.84c0.32,0,0.426-0.133,0.32-0.4c-0.267-1.546-0.4-2.292-0.4-2.24c-0.48-1.6-1.32-2.84-2.52-3.72c-1.2-0.88-2.68-1.32-4.44-1.32
		C171.564,190.514,169.35,192.087,168.284,195.234z"/>
	<path fill="#FFFFFF" d="M207.324,221.634c-2.667-1.013-4.734-2.426-6.2-4.24c-1.467-1.813-2.2-3.866-2.2-6.16v-0.8
		c0-0.266,0.093-0.492,0.28-0.68c0.186-0.187,0.413-0.28,0.68-0.28h8.88c0.266,0,0.492,0.094,0.68,0.28
		c0.187,0.188,0.28,0.414,0.28,0.68v0.08c0,1.174,0.652,2.174,1.96,3c1.306,0.828,2.946,1.24,4.92,1.24c1.813,0,3.28-0.36,4.4-1.08
		c1.12-0.72,1.68-1.613,1.68-2.68c0-0.96-0.48-1.68-1.44-2.16c-0.96-0.48-2.534-0.986-4.72-1.52c-2.507-0.64-4.48-1.253-5.92-1.84
		c-3.414-1.172-6.134-2.612-8.16-4.32c-2.027-1.707-3.04-4.16-3.04-7.36c0-3.946,1.533-7.08,4.6-9.4
		c3.066-2.32,7.133-3.48,12.2-3.48c3.413,0,6.4,0.548,8.96,1.64c2.56,1.094,4.546,2.627,5.96,4.6c1.413,1.974,2.12,4.214,2.12,6.72
		c0,0.268-0.094,0.494-0.28,0.68c-0.188,0.188-0.414,0.28-0.68,0.28h-8.56c-0.268,0-0.494-0.093-0.68-0.28
		c-0.188-0.186-0.28-0.413-0.28-0.68c0-1.172-0.6-2.16-1.8-2.96c-1.2-0.8-2.787-1.2-4.76-1.2c-1.76,0-3.2,0.32-4.32,0.96
		c-1.12,0.64-1.68,1.52-1.68,2.64c0,1.067,0.546,1.867,1.64,2.4c1.092,0.534,2.92,1.094,5.48,1.68c0.586,0.16,1.252,0.334,2,0.52
		c0.746,0.188,1.546,0.414,2.4,0.68c3.786,1.12,6.772,2.56,8.96,4.32c2.186,1.76,3.28,4.32,3.28,7.68c0,3.947-1.56,7.027-4.68,9.24
		c-3.12,2.213-7.32,3.32-12.6,3.32C213.11,223.154,209.99,222.646,207.324,221.634z"/>
	<path fill="#FFFFFF" d="M263.684,190.234c-0.188,0.188-0.414,0.28-0.68,0.28h-7.68c-0.268,0-0.4,0.134-0.4,0.4v16.96
		c0,1.76,0.36,3.068,1.08,3.92c0.72,0.854,1.88,1.28,3.48,1.28h2.64c0.266,0,0.493,0.094,0.68,0.28
		c0.186,0.188,0.28,0.414,0.28,0.68v7.6c0,0.587-0.32,0.934-0.96,1.04c-2.24,0.106-3.84,0.16-4.8,0.16
		c-4.428,0-7.734-0.733-9.92-2.2c-2.188-1.466-3.308-4.226-3.36-8.28v-21.44c0-0.266-0.134-0.4-0.4-0.4h-4.56
		c-0.268,0-0.494-0.092-0.68-0.28c-0.188-0.187-0.28-0.413-0.28-0.68v-7.12c0-0.266,0.093-0.492,0.28-0.68
		c0.186-0.187,0.412-0.28,0.68-0.28h4.56c0.266,0,0.4-0.132,0.4-0.4v-9.52c0-0.266,0.093-0.493,0.28-0.68
		c0.186-0.186,0.413-0.28,0.68-0.28h8.96c0.267,0,0.493,0.094,0.68,0.28c0.187,0.188,0.28,0.414,0.28,0.68v9.52
		c0,0.268,0.132,0.4,0.4,0.4h7.68c0.267,0,0.493,0.094,0.68,0.28c0.186,0.188,0.28,0.414,0.28,0.68v7.12
		C263.964,189.821,263.87,190.047,263.684,190.234z"/>
</g>
</svg>
